<svg width="20" height="20" viewBox="0 0 20 20" fill="none" xmlns="http://www.w3.org/2000/svg">
<path d="M2.18866 17.797H3.72072L13.1593 8.35842L11.6272 6.82636L2.18866 16.2649V17.797ZM17.8376 6.77164L13.1867 2.17546L14.7187 0.643399C15.1382 0.223907 15.6536 0.0141602 16.265 0.0141602C16.8756 0.0141602 17.3907 0.223907 17.8102 0.643399L19.3423 2.17546C19.7618 2.59495 19.9806 3.10126 19.9989 3.69439C20.0171 4.28678 19.8165 4.79273 19.397 5.21222L17.8376 6.77164ZM16.2508 8.38578L4.6509 19.9857H0V15.3348L11.5999 3.73488L16.2508 8.38578ZM12.3933 7.59239L11.6272 6.82636L13.1593 8.35842L12.3933 7.59239Z" fill="white"/>
</svg>
