<svg width="100" height="100" viewBox="0 0 100 100" fill="none" xmlns="http://www.w3.org/2000/svg">
<path d="M34.1797 34.1797C36.0156 32.3633 38.9844 32.3633 40.6445 34.1797L49.8242 43.3789L59.1797 34.1797C61.0156 32.3633 63.9844 32.3633 65.6445 34.1797C67.6367 36.0156 67.6367 38.9844 65.6445 40.6445L56.6211 49.8242L65.6445 59.1797C67.6367 61.0156 67.6367 63.9844 65.6445 65.6445C63.9844 67.6367 61.0156 67.6367 59.1797 65.6445L49.8242 56.6211L40.6445 65.6445C38.9844 67.6367 36.0156 67.6367 34.1797 65.6445C32.3633 63.9844 32.3633 61.0156 34.1797 59.1797L43.3789 49.8242L34.1797 40.6445C32.3633 38.9844 32.3633 36.0156 34.1797 34.1797ZM100 50C100 77.6172 77.6172 100 50 100C22.3828 100 0 77.6172 0 50C0 22.3828 22.3828 0 50 0C77.6172 0 100 22.3828 100 50ZM50 9.375C27.5586 9.375 9.375 27.5586 9.375 50C9.375 72.4414 27.5586 90.625 50 90.625C72.4414 90.625 90.625 72.4414 90.625 50C90.625 27.5586 72.4414 9.375 50 9.375Z" fill="#FC3903"/>
</svg>
