<svg width="21" height="16" viewBox="0 0 21 16" fill="none" xmlns="http://www.w3.org/2000/svg">
<path d="M17.7368 0.105286C19.2632 0.105286 20.5 1.34213 20.5 2.86844V13.1316C20.5 14.6579 19.2632 15.8948 17.7368 15.8948H3.26316C2.53032 15.8948 1.8275 15.6036 1.30931 15.0855C0.791117 14.5673 0.5 13.8644 0.5 13.1316V2.86844C0.5 1.34213 1.73684 0.105286 3.26316 0.105286H17.7368ZM19.1842 5.02686L10.8168 9.62897C10.7308 9.67631 10.6352 9.70376 10.5371 9.70932C10.439 9.71487 10.3409 9.69839 10.25 9.66108L10.1832 9.6295L1.81579 5.02634V13.1316C1.81579 13.5155 1.96828 13.8836 2.23971 14.155C2.51115 14.4265 2.87929 14.579 3.26316 14.579H17.7368C18.1207 14.579 18.4889 14.4265 18.7603 14.155C19.0317 13.8836 19.1842 13.5155 19.1842 13.1316V5.02686ZM17.7368 1.42108H3.26316C2.87929 1.42108 2.51115 1.57357 2.23971 1.845C1.96828 2.11643 1.81579 2.48458 1.81579 2.86844V3.52581L10.5 8.3016L19.1842 3.52529V2.86844C19.1842 2.48458 19.0317 2.11643 18.7603 1.845C18.4889 1.57357 18.1207 1.42108 17.7368 1.42108Z" fill="white"/>
</svg>
