<svg width="100" height="100" viewBox="0 0 100 100" fill="none" xmlns="http://www.w3.org/2000/svg">
<path d="M73.2348 32.1899C72.2153 31.3349 70.8917 30.9124 69.555 31.0152C68.2182 31.118 66.9778 31.7377 66.1063 32.7382L44.336 57.7376L32.6242 48.1376C32.1605 47.746 31.6222 47.4488 31.0406 47.2633C30.4589 47.0777 29.8455 47.0076 29.236 47.0569C28.6264 47.1062 28.033 47.2739 27.4901 47.5504C26.9472 47.8269 26.4656 48.2066 26.0735 48.6674C25.6813 49.1282 25.3864 49.661 25.2058 50.2347C25.0252 50.8085 24.9625 51.4117 25.0215 52.0094C25.0804 52.6072 25.2598 53.1874 25.5491 53.7165C25.8385 54.2455 26.232 54.7128 26.7069 55.0912L42.398 67.9552C42.8818 68.3513 43.4436 68.6453 44.0482 68.8189C44.6528 68.9925 45.2874 69.042 45.9123 68.9643C46.5751 68.914 47.2213 68.7359 47.8139 68.4401C48.4064 68.1443 48.9338 67.7367 49.3658 67.2406L73.7899 39.1872C74.6598 38.1857 75.0894 36.8861 74.9845 35.5739C74.8796 34.2617 74.2488 33.0439 73.2305 32.1878" fill="#37B34A"/>
<path d="M100 50C100 77.6172 77.6172 100 50 100C22.3828 100 0 77.6172 0 50C0 22.3828 22.3828 0 50 0C77.6172 0 100 22.3828 100 50ZM50 9.375C27.5586 9.375 9.375 27.5586 9.375 50C9.375 72.4414 27.5586 90.625 50 90.625C72.4414 90.625 90.625 72.4414 90.625 50C90.625 27.5586 72.4414 9.375 50 9.375Z" fill="#37B34A"/>
</svg>
