<svg width="11" height="8" viewBox="0 0 11 8" fill="none" xmlns="http://www.w3.org/2000/svg">
<path d="M10.147 0.415969C9.94305 0.243909 9.67833 0.158879 9.41099 0.179568C9.14365 0.200257 8.89556 0.324972 8.72125 0.526301L4.3672 5.55715L2.02484 3.62526C1.93211 3.54646 1.82445 3.48664 1.70812 3.44931C1.59178 3.41197 1.4691 3.39785 1.34719 3.40777C1.22529 3.41769 1.10659 3.45145 0.998012 3.50709C0.88943 3.56273 0.793126 3.63914 0.714697 3.73187C0.636267 3.82461 0.577278 3.93182 0.541158 4.04728C0.505038 4.16274 0.492508 4.28414 0.504296 4.40442C0.516084 4.5247 0.551954 4.64147 0.609823 4.74794C0.667691 4.85441 0.746403 4.94845 0.841382 5.02459L3.9796 7.61332C4.07637 7.69303 4.18871 7.7522 4.30964 7.78714C4.43056 7.82207 4.55747 7.83203 4.68246 7.81639C4.81502 7.80627 4.94425 7.77042 5.06277 7.7109C5.18129 7.65138 5.28676 7.56935 5.37315 7.46951L10.258 1.8241C10.432 1.62254 10.5179 1.36103 10.4969 1.09696C10.4759 0.832883 10.3498 0.587817 10.1461 0.41554" fill="#100F1F"/>
</svg>
