


<svg version="1.1" xmlns="http://www.w3.org/2000/svg" xmlns:xlink="http://www.w3.org/1999/ width="24px" height="22px" style="shape-rendering:geometricPrecision; text-rendering:geometricPrecision; image-rendering:optimizeQuality; fill-rule:evenodd; clip-rule:evenodd"xlink">

<symbol viewBox="0 0 512 512" id="star">
<g transform="translate(0.000000,512.000000) scale(0.100000,-0.100000)" stroke="none">
<path style="opacity:0.934" fill="#fbbb04" d="M 10.5,-0.5 C 11.1667,-0.5 11.8333,-0.5 12.5,-0.5C 13.5323,5.63025 17.1989,8.29692 23.5,7.5C 23.5,7.83333 23.5,8.16667 23.5,8.5C 21.3702,10.1271 19.3702,11.9604 17.5,14C 18.435,16.3806 18.7683,18.8806 18.5,21.5C 17.8333,21.5 17.1667,21.5 16.5,21.5C 13.1667,17.5 9.83333,17.5 6.5,21.5C 5.5,21.5 4.5,21.5 3.5,21.5C 5.94696,16.1739 4.61363,12.1739 -0.5,9.5C -0.5,8.5 -0.5,7.5 -0.5,6.5C 5.51458,7.81414 9.18125,5.48081 10.5,-0.5 Z"/></g>
</symbol>

</svg>
