<svg width="72" height="48" viewBox="0 0 72 48" fill="none" xmlns="http://www.w3.org/2000/svg">
<g clip-path="url(#clip0_302_550)">
<path d="M46.1631 37.4039C45.7981 37.3448 45.4657 37.2608 45.1364 37.2456C44.6218 37.2214 44.1042 37.2358 43.5866 37.2456C43.0906 37.2656 42.602 37.1227 42.1987 36.8398C41.6462 36.4454 41.0511 36.0615 40.6272 35.5528C39.8841 34.6579 38.9046 34.5284 37.8601 34.5178C37.5222 34.5178 37.1797 34.5981 36.8465 34.6693C35.9941 34.8593 35.3083 35.3143 34.848 36.0381C34.1684 37.1237 33.2781 37.9921 32.2312 38.7303C31.8755 38.9809 31.5865 39.3208 31.2618 39.6138C30.686 40.1354 30.1149 40.6631 29.5252 41.1689C28.8115 41.7821 27.9072 42.0017 27.0145 42.0948C26.2249 42.1796 25.4128 42.3424 24.6123 42.1326C24.0699 41.9918 23.5771 41.7957 23.4337 41.081C23.8584 39.8947 25.0331 39.3564 26.0289 38.6379C26.4318 37.9565 26.5953 37.2608 26.4465 36.4424C26.2978 35.6239 26.2823 34.7624 26.8053 34.0288C27.2555 33.6676 27.7189 33.6767 28.2001 33.8955C28.7123 34.1272 29.2284 34.3498 29.7375 34.5882C30.0336 34.7253 30.3257 34.8373 30.6481 34.6897C30.8604 34.4853 30.7922 34.2574 30.7457 34.0159C30.5597 33.0476 30.025 32.2398 29.5198 31.4191C29.2548 30.9875 28.3574 29.4317 27.9987 29.0721C26.7255 27.7646 25.4802 26.5737 23.3655 24.5553C22.4891 23.7225 21.2431 23.3371 20.0474 23.5961C19.5258 23.7087 19.0382 23.9384 18.6231 24.2668C17.639 25.0345 16.5464 25.6447 15.2577 25.7863C14.7478 25.8431 14.2294 25.8272 13.7149 25.8416C13.4933 25.8476 13.2709 25.8355 13.0516 25.8529C12.5022 25.8984 12.3325 26.0657 12.2627 26.61C12.2449 26.7501 12.2317 26.8917 12.2193 27.012C11.9195 27.3035 11.5847 27.3565 11.2461 27.2134C10.8214 27.0342 10.4093 26.8279 10.0124 26.5956C9.04612 26.0278 8.12786 25.3745 7.12901 24.871C5.12279 23.8603 3.07705 22.9238 1.04526 21.9623C0.565593 21.7351 0.152571 21.455 0.00146484 20.891C0.0929032 20.2558 0.472606 19.7553 0.968543 19.3518C1.60074 18.8171 2.31349 18.3807 3.0817 18.058C3.34129 17.9527 3.56911 17.7733 3.86203 17.5984C3.80081 17.1275 3.75974 16.7043 3.6869 16.2856C3.63345 15.9546 3.55312 15.6283 3.44668 15.3097C3.30177 14.8956 3.39553 14.5299 3.68535 14.2437C4.51191 13.4251 5.35604 12.6213 6.21773 11.8324C7.11351 11.0155 8.03797 10.2274 8.92368 9.44909C9.00117 8.98423 9.08951 8.58601 9.12361 8.18323C9.20962 7.17025 9.18792 6.16711 8.62767 5.25708C8.34406 4.79677 8.3797 4.2918 8.38048 3.78682C8.38048 3.46884 8.49516 3.22809 8.89269 3.04638C9.06859 3.06607 9.33903 3.06682 9.5901 3.12966C10.2712 3.29849 10.8493 3.12966 11.3615 2.68147C11.453 2.60122 11.546 2.52248 11.6335 2.43844C12.3875 1.71315 13.3073 1.64955 14.2907 1.81157C14.5612 1.85368 14.8343 1.87771 15.1082 1.88349C16.3566 1.92602 17.597 2.09783 18.8083 2.39604C19.3213 2.51869 19.8157 2.76929 20.2845 3.01459C21.4918 3.64146 22.7851 3.99047 24.1249 4.18732C24.7286 4.2759 25.3477 4.26303 25.9506 4.35236C26.3607 4.41652 26.7595 4.53655 27.1354 4.70895C28.1102 5.15639 29.0494 5.66516 30.0738 6.02174C30.9712 6.33367 31.6562 6.96129 32.1049 7.81302C32.3172 8.21655 32.5838 8.59282 32.8201 8.98499C33.0882 9.43167 33.4679 9.62019 34.0072 9.49603C34.566 9.13111 34.7527 8.56632 34.793 7.95308C34.8612 6.92571 34.8782 5.89455 34.948 4.86718C34.979 4.41672 35.0882 3.97155 35.1619 3.52411C35.3006 2.67844 35.8895 2.30671 36.6861 2.20601C37.0735 2.15756 37.4718 2.18557 37.8639 2.21056C38.5211 2.25295 39.1766 2.32109 39.8159 2.37712C41.3208 1.02874 42.9566 0.0831354 45.0124 0.00288391C45.4533 0.373101 45.8772 0.734989 46.3088 1.08855C46.6281 1.34975 46.9411 1.61851 47.2829 1.85169C47.7728 2.17319 48.133 2.65114 48.3018 3.20364C48.4706 3.75614 48.4375 4.34879 48.2081 4.88005C48.019 5.33431 47.8741 5.78175 48.0058 6.3049C48.2747 6.75234 48.7412 6.94161 49.2457 7.0794C50.0981 7.30653 50.9427 7.54728 51.7897 7.78576C52.1252 7.8804 52.4398 8.01289 52.6801 8.44065C52.6801 8.78815 52.6413 9.24695 52.6909 9.6959C52.7492 10.1442 52.848 10.5865 52.9861 11.0178C53.1535 11.5773 53.6061 11.8059 54.164 11.8218C54.9257 11.8438 55.689 11.8634 56.45 11.8301C56.7537 11.8173 57.0699 11.6916 57.3504 11.5652C58.1772 11.1942 59.0087 10.8459 59.8998 10.7036C60.4492 10.7626 60.7328 11.0715 60.8684 11.5659C60.9459 11.8407 61.0823 12.1004 61.1955 12.3654C61.6131 13.342 62.4353 13.7569 63.4481 13.8508C64.075 13.9091 64.6957 14.0113 65.3435 13.8932C65.7007 13.8289 66.1277 13.9386 66.4795 14.0772C67.523 14.4946 68.6118 14.7943 69.7248 14.9705C70.0348 15.019 70.3618 14.9978 70.6803 15.0137C71.0933 15.0334 71.449 15.1591 71.7124 15.6194C71.5923 16.487 71.6349 17.444 71.2847 18.3593C70.9344 19.2746 70.1905 19.9264 69.559 20.7418C69.8 20.9462 69.9937 21.1136 70.1897 21.2771C70.5625 21.5875 70.984 21.8563 71.3002 22.2136C71.8496 22.8344 72.1526 23.5574 71.9116 24.4046C71.7891 24.8354 71.9526 25.3351 71.5148 25.7674C70.905 26.1611 70.1037 26.2769 69.3381 26.2489C68.2533 26.2088 67.4613 26.6933 66.7035 27.3278C66.4989 27.4996 66.316 27.6972 66.1262 27.8842C65.6015 28.4006 65.4063 29.0062 65.5744 29.7262C65.6945 30.2433 65.7775 30.7657 65.3799 31.3434C65.0266 31.4713 64.605 31.6628 64.1595 31.7787C62.2912 32.2647 60.412 32.7114 58.5461 33.205C57.2915 33.5366 56.0826 33.9417 55.0187 34.7518C53.9548 35.5619 52.7715 36.2137 51.6502 36.942C51.448 37.073 51.269 37.2365 51.1078 37.3607C51.0386 37.5878 51.0222 37.8272 51.0599 38.0612C51.0976 38.2953 51.1883 38.5182 51.3255 38.7136C51.5935 39.116 51.8228 39.5418 52.0105 39.9855C52.3531 40.8448 53.0404 41.1628 53.9029 41.2302C54.2709 41.2582 54.6406 41.2582 55.0086 41.2302C55.6018 41.1933 56.159 40.9395 56.5693 40.5193C57.0164 40.0726 57.4589 39.6183 57.9393 39.2088C58.257 38.9385 58.5592 38.5751 59.0645 38.6788C59.3682 38.9059 59.3287 39.1868 59.252 39.476C59.1358 39.9166 59.0126 40.355 58.911 40.7979C58.8196 41.1938 58.7561 41.5959 58.6662 42.0509C58.2012 42.9511 57.3248 43.235 56.3205 43.297C55.7595 43.3319 55.1993 43.3735 54.6398 43.422C54.4679 43.4333 54.3015 43.4858 54.1553 43.5748C54.0091 43.6637 53.8875 43.7865 53.8013 43.9322C53.5224 44.3653 53.1101 44.5788 52.5716 44.606C52.0105 44.6333 51.4526 44.7226 50.7939 44.7961C50.353 44.9611 50.0733 45.4245 49.7401 45.8356C49.4069 46.2467 49.0892 46.679 48.7195 47.0583C48.2926 47.4966 47.7424 47.6829 47.1139 47.6246C46.6815 47.5844 46.3476 47.3929 46.229 46.981C46.106 46.5945 46.0354 46.1939 46.019 45.7894C46.012 45.1141 45.8764 44.5099 45.3882 44.0034C45.229 43.8517 45.1062 43.6673 45.0287 43.4636C44.8195 42.7905 44.2848 42.6308 43.6679 42.5687C43.1573 42.5188 42.6474 42.4665 42.0624 42.4082L41.5788 41.6617C41.7718 40.5322 42.3684 39.822 43.3231 39.3905C43.943 39.1066 44.5862 38.8605 45.1945 38.5486C45.6184 38.326 46.0934 38.1163 46.1631 37.4039Z" fill="black"/>
<path d="M50.6663 22.397C50.5175 22.5567 50.3315 22.5923 50.1145 22.5915C48.2245 22.5855 46.3338 22.5915 44.443 22.5915H44.1563C44.1501 22.4962 44.1424 22.4189 44.1416 22.3417C44.1416 21.6512 44.147 20.9608 44.1416 20.2703C44.1419 19.9655 44.1021 19.6619 44.023 19.3671C43.8916 18.8987 43.6416 18.4702 43.2962 18.1209C43.2512 18.074 43.2032 18.0301 43.1598 17.9824C43.1497 17.9718 43.1497 17.9529 43.1443 17.9317L45.7146 16.9853C46.0992 16.8344 46.528 16.8311 46.915 16.9762C47.7968 17.3018 48.681 17.6213 49.5574 17.9604C49.8208 18.056 50.0559 18.214 50.2413 18.4203C50.4267 18.6266 50.5568 18.8747 50.6198 19.1422C50.6311 19.1702 50.6457 19.1969 50.6632 19.2217L50.6663 22.397Z" fill="#F4F4F9"/>
<path d="M38.0267 23.9036H33.3161C32.8078 23.9036 32.6574 23.7522 32.6567 23.2578C32.6567 22.2304 32.6667 21.2023 32.6567 20.1749C32.6509 19.7275 32.7852 19.2891 33.0416 18.9184C33.2979 18.5477 33.6641 18.2623 34.091 18.1005C35.1581 17.7106 36.2189 17.3033 37.2867 16.9156C37.7681 16.7366 38.3001 16.7366 38.7815 16.9156C39.8493 17.3033 40.914 17.6992 41.9756 18.1035C42.7955 18.4162 43.2596 19.0173 43.403 19.8592C43.4145 19.9468 43.4187 20.0352 43.4154 20.1234C43.4154 21.1914 43.4154 22.2594 43.4154 23.3274C43.4235 23.4478 43.3966 23.568 43.3379 23.6742C43.3028 23.7384 43.2517 23.7929 43.1892 23.8326C43.1267 23.8723 43.055 23.896 42.9807 23.9013C42.9032 23.9074 42.8164 23.9059 42.7343 23.9059L38.0267 23.9036Z" fill="#F4F4F9"/>
<path d="M31.9352 22.5878H25.9375C25.8801 22.5878 25.822 22.5878 25.7654 22.5878C25.5391 22.5681 25.4066 22.4363 25.4059 22.2092C25.4059 21.2856 25.3873 20.3619 25.4121 19.439C25.4299 18.8038 25.7724 18.3299 26.3419 18.0354C26.6302 17.884 26.9471 17.7893 27.2525 17.675C27.8422 17.4539 28.435 17.2435 29.0223 17.0179C29.4561 16.8352 29.9456 16.8249 30.3869 16.9891C31.2347 17.3071 32.0847 17.6182 32.9495 17.9377C32.8163 18.0891 32.6868 18.2194 32.5714 18.3632C32.218 18.8031 31.991 19.2997 31.9708 19.86C31.9429 20.6701 31.9453 21.4801 31.9352 22.2902C31.9344 22.3788 31.9352 22.4666 31.9352 22.5878Z" fill="#F4F4F9"/>
<path d="M40.945 13.2415C40.907 14.8193 39.6757 16.0707 38.0422 16.0723C37.2734 16.0723 36.536 15.7739 35.9924 15.2427C35.4487 14.7116 35.1433 13.9912 35.1433 13.24C35.1433 12.4888 35.4487 11.7684 35.9924 11.2373C36.536 10.7061 37.2734 10.4077 38.0422 10.4077C39.6618 10.4092 40.9101 11.6546 40.945 13.2415Z" fill="#F4F4F9"/>
<path d="M29.7398 16.2502C29.431 16.2505 29.1251 16.1903 28.8405 16.0731C28.5559 15.9559 28.2982 15.784 28.0828 15.5677C27.8674 15.3515 27.6985 15.0951 27.5864 14.814C27.4742 14.5328 27.4209 14.2325 27.4296 13.9308C27.4384 13.6291 27.509 13.3322 27.6374 13.0577C27.7657 12.7832 27.9491 12.5367 28.1768 12.3327C28.4044 12.1287 28.6716 11.9714 28.9626 11.8702C29.2536 11.7689 29.5624 11.7257 29.8708 11.7432C31.0773 11.8136 32.0769 12.7524 32.0545 14.0357C32.0514 14.3296 31.9891 14.6201 31.8712 14.8905C31.7532 15.1609 31.5818 15.4059 31.3669 15.6115C31.1519 15.8172 30.8976 15.9794 30.6184 16.089C30.3392 16.1986 30.0407 16.2534 29.7398 16.2502Z" fill="#F4F4F9"/>
<path d="M46.3399 16.2434C46.035 16.249 45.7321 16.1946 45.4491 16.0836C45.1661 15.9725 44.9089 15.807 44.6927 15.5969C44.4764 15.3868 44.3057 15.1364 44.1905 14.8605C44.0753 14.5846 44.0181 14.2889 44.0222 13.991C44.0261 12.632 45.1466 11.7485 46.3236 11.7394C46.6279 11.7389 46.9293 11.797 47.2105 11.9104C47.4918 12.0238 47.7474 12.1902 47.9628 12.4001C48.1782 12.6101 48.3492 12.8595 48.4659 13.134C48.5825 13.4085 48.6427 13.7028 48.6429 14.0001C48.6445 15.3038 47.5054 16.285 46.3399 16.2434Z" fill="#F4F4F9"/>
</g>
<defs>
<clipPath id="clip0_302_550">
<rect width="72" height="47.6308" fill="white"/>
</clipPath>
</defs>
</svg>
