<svg width="21" height="20" viewBox="0 0 21 20" fill="none" xmlns="http://www.w3.org/2000/svg">
<path d="M5.25958 17.1432L2.56863 16.5561C2.324 16.5072 2.1283 16.3806 1.98152 16.1765C1.83474 15.9729 1.77766 15.7488 1.81027 15.5042L2.07937 12.7399L0.244632 10.636C0.0815439 10.4566 0 10.2446 0 10C0 9.75537 0.0815439 9.54335 0.244632 9.36396L2.07937 7.26012L1.81027 4.49579C1.77766 4.25115 1.83474 4.02707 1.98152 3.82354C2.1283 3.61935 2.324 3.4928 2.56863 3.44387L5.25958 2.85675L6.67845 0.459364C6.80892 0.24735 6.98831 0.108725 7.21664 0.0434901C7.44496 -0.021745 7.67328 -0.0135907 7.9016 0.0679532L10.4458 1.14433L12.9899 0.0679532C13.2183 -0.0135907 13.4466 -0.021745 13.6749 0.0434901C13.9032 0.108725 14.0826 0.24735 14.2131 0.459364L15.632 2.85675L18.3229 3.44387C18.5675 3.4928 18.7633 3.61935 18.91 3.82354C19.0568 4.02707 19.1139 4.25115 19.0813 4.49579L18.8122 7.26012L20.6469 9.36396C20.81 9.54335 20.8915 9.75537 20.8915 10C20.8915 10.2446 20.81 10.4566 20.6469 10.636L18.8122 12.7399L19.0813 15.5042C19.1139 15.7488 19.0568 15.9729 18.91 16.1765C18.7633 16.3806 18.5675 16.5072 18.3229 16.5561L15.632 17.1432L14.2131 19.5406C14.0826 19.7526 13.9032 19.8913 13.6749 19.9565C13.4466 20.0217 13.2183 20.0136 12.9899 19.932L10.4458 18.8557L7.9016 19.932C7.67328 20.0136 7.44496 20.0217 7.21664 19.9565C6.98831 19.8913 6.80892 19.7526 6.67845 19.5406L5.25958 17.1432ZM8.73335 12.7888C8.91275 12.9682 9.14107 13.0579 9.41832 13.0579C9.69557 13.0579 9.92389 12.9682 10.1033 12.7888L14.262 8.63006C14.4577 8.43436 14.5556 8.20179 14.5556 7.93237C14.5556 7.6636 14.4577 7.43137 14.262 7.23566C14.0663 7.03996 13.8341 6.9421 13.5653 6.9421C13.2959 6.9421 13.0633 7.03996 12.8676 7.23566L9.41832 10.685L7.99946 9.29057C7.80375 9.11117 7.57151 9.02539 7.30275 9.03322C7.03333 9.0417 6.80892 9.13563 6.62952 9.31503C6.45012 9.49443 6.36042 9.72275 6.36042 10C6.36042 10.2772 6.45012 10.5056 6.62952 10.685L8.73335 12.7888Z" fill="#201C2E"/>
</svg>
