<svg width="32" height="32" viewBox="0 0 32 32" fill="none" xmlns="http://www.w3.org/2000/svg">
<path d="M16 8.625C14.5414 8.625 13.1155 9.05754 11.9027 9.86791C10.6899 10.6783 9.74459 11.8301 9.18639 13.1777C8.62819 14.5253 8.48214 16.0082 8.76671 17.4388C9.05128 18.8694 9.75367 20.1835 10.7851 21.2149C11.8165 22.2463 13.1306 22.9487 14.5612 23.2333C15.9918 23.5179 17.4747 23.3718 18.8223 22.8136C20.1699 22.2554 21.3217 21.3101 22.1321 20.0973C22.9425 18.8845 23.375 17.4586 23.375 16C23.375 14.044 22.598 12.1682 21.2149 10.7851C19.8318 9.40201 17.956 8.625 16 8.625ZM22.5082 7.2053L22.9701 7.39665L22.5082 7.20531C22.3758 7.52507 22.3411 7.87694 22.4086 8.21641C22.4762 8.55587 22.6428 8.86769 22.8876 9.11244C23.1323 9.35718 23.4441 9.52385 23.7836 9.59137C24.1231 9.6589 24.4749 9.62424 24.7947 9.49179C25.1145 9.35934 25.3878 9.13504 25.5801 8.84725C25.7724 8.55946 25.875 8.22112 25.875 7.875C25.875 7.41087 25.6906 6.96575 25.3624 6.63756C25.0342 6.30937 24.5891 6.125 24.125 6.125C23.7789 6.125 23.4405 6.22764 23.1528 6.41993C22.865 6.61222 22.6407 6.88553 22.5082 7.2053ZM16 21.125C14.9864 21.125 13.9955 20.8244 13.1527 20.2613C12.3099 19.6981 11.653 18.8977 11.2651 17.9613C10.8772 17.0248 10.7757 15.9943 10.9735 15.0002C11.1712 14.006 11.6593 13.0928 12.3761 12.3761C13.0928 11.6593 14.006 11.1712 15.0002 10.9735C15.9943 10.7757 17.0248 10.8772 17.9613 11.2651C18.8977 11.653 19.6981 12.3099 20.2613 13.1527C20.8244 13.9955 21.125 14.9864 21.125 16C21.125 17.3592 20.585 18.6628 19.6239 19.6239C18.6628 20.585 17.3592 21.125 16 21.125ZM22.875 0.5H9.125C6.83751 0.5 4.64371 1.4087 3.0262 3.0262C1.4087 4.64371 0.5 6.83751 0.5 9.125V22.875C0.5 24.0077 0.723092 25.1292 1.15654 26.1756C1.58999 27.2221 2.2253 28.1729 3.0262 28.9738C4.6437 30.5913 6.83751 31.5 9.125 31.5H22.875C24.0077 31.5 25.1292 31.2769 26.1756 30.8435C27.2221 30.41 28.1729 29.7747 28.9738 28.9738C29.7747 28.1729 30.41 27.2221 30.8435 26.1756C31.2769 25.1292 31.5 24.0077 31.5 22.875V9.125C31.5 7.99235 31.2769 6.87079 30.8435 5.82436C30.41 4.77792 29.7747 3.82711 28.9738 3.0262C28.1729 2.2253 27.2221 1.58999 26.1756 1.15654C25.1292 0.723092 24.0077 0.5 22.875 0.5ZM29.25 22.875C29.25 24.5658 28.5784 26.1873 27.3828 27.3828C26.1873 28.5784 24.5658 29.25 22.875 29.25H9.125C7.43424 29.25 5.81274 28.5784 4.61719 27.3828C3.42165 26.1873 2.75 24.5658 2.75 22.875V9.125C2.75 7.43425 3.42165 5.81274 4.61719 4.61719C5.81274 3.42165 7.43425 2.75 9.125 2.75H22.875C24.5658 2.75 26.1873 3.42165 27.3828 4.61719C28.5784 5.81274 29.25 7.43424 29.25 9.125V22.875Z" fill="white" stroke="white"/>
</svg>
