<svg width="25" height="30" viewBox="0 0 25 30" fill="none" xmlns="http://www.w3.org/2000/svg">
<path d="M12.6963 0C4.44629 0 0.133789 5.25 0.133789 11.0625C0.133789 13.875 1.63379 16.6875 4.07129 18.1875C4.82129 18.5625 4.63379 18.1875 5.19629 15.9375C5.19629 15.75 5.19629 15.5625 5.00879 15.375C1.63379 11.25 4.44629 3.1875 12.3213 3.1875C23.7588 3.1875 21.5088 18.9375 14.3838 18.9375C12.8838 19.125 11.5713 18 11.5713 16.5V15.75C12.3213 13.6875 12.8838 11.8125 13.0713 9.75C13.0713 5.8125 7.25879 6.375 7.25879 11.625C7.25879 12.5625 7.44629 13.5 7.82129 14.25C7.82129 14.25 5.94629 21.9375 5.57129 23.25C5.19629 25.5 5.38379 27.75 5.75879 29.8125C5.57129 30 5.75879 30 5.75879 30H5.94629C7.25879 28.125 8.38379 26.25 9.13379 24.1875C9.32129 23.25 10.2588 19.875 10.2588 19.875C11.1963 21.1875 12.8838 21.9375 14.5713 21.9375C20.3838 21.9375 24.5088 16.875 24.5088 10.6875C24.5088 4.5 19.2588 0 12.6963 0Z" fill="white"/>
</svg>
