<svg width="30" height="25" viewBox="0 0 30 25" fill="none" xmlns="http://www.w3.org/2000/svg">
<path d="M30 2.88194C29.5898 3.49636 29.126 4.0669 28.6084 4.59354C28.0908 5.12019 27.5293 5.60783 26.9238 6.05646C26.9336 6.19299 26.9385 6.32466 26.9385 6.45144C26.9385 6.57823 26.9434 6.71477 26.9531 6.86106C26.9531 8.0899 26.8213 9.30412 26.5576 10.5037C26.2939 11.7033 25.9131 12.8639 25.415 13.9854C24.6924 15.6141 23.7891 17.0673 22.7051 18.3449C21.6211 19.6225 20.3955 20.71 19.0283 21.6072C17.6611 22.5045 16.1621 23.1823 14.5312 23.6407C12.9004 24.099 11.2012 24.3331 9.43359 24.3429C7.75391 24.3429 6.11816 24.1137 4.52637 23.6553C2.93457 23.1969 1.42578 22.5045 0 21.578C0.478516 21.6365 0.966797 21.6657 1.46484 21.6657C2.86133 21.6657 4.20898 21.4414 5.50781 20.9928C6.80664 20.5442 8.00781 19.8907 9.11133 19.0325C8.45703 19.0227 7.82715 18.9155 7.22168 18.7106C6.61621 18.5058 6.06445 18.2133 5.56641 17.8329C5.06836 17.4525 4.62891 17.0039 4.24805 16.487C3.86719 15.9701 3.57422 15.3996 3.36914 14.7754C3.56445 14.8047 3.75488 14.8291 3.94043 14.8486C4.12598 14.8681 4.32129 14.8778 4.52637 14.8778C5.07324 14.8778 5.61035 14.8047 6.1377 14.6584C5.41504 14.5121 4.75586 14.2536 4.16016 13.883C3.56445 13.5124 3.04199 13.0638 2.59277 12.5372C2.14355 12.0105 1.80176 11.4107 1.56738 10.7378C1.33301 10.0648 1.21094 9.36264 1.20117 8.63118V8.55803C2.06055 9.04567 2.99316 9.30412 3.99902 9.33338C3.56934 9.0408 3.18848 8.7092 2.85645 8.3386C2.52441 7.96799 2.23633 7.55838 1.99219 7.10975C1.74805 6.66113 1.56738 6.19787 1.4502 5.71999C1.33301 5.2421 1.26953 4.73983 1.25977 4.21319C1.25977 3.66703 1.32812 3.13551 1.46484 2.61861C1.60156 2.10172 1.81152 1.60433 2.09473 1.12644C2.87598 2.09196 3.74512 2.95508 4.70215 3.7158C5.65918 4.47651 6.6748 5.13482 7.74902 5.69073C8.82324 6.24663 9.95605 6.67576 11.1475 6.97809C12.3389 7.28043 13.5498 7.4706 14.7803 7.54863C14.7217 7.32431 14.6826 7.09512 14.6631 6.86106C14.6436 6.62699 14.6289 6.38805 14.6191 6.14423C14.6191 5.29574 14.7803 4.50089 15.1025 3.75968C15.4248 3.01848 15.8643 2.36504 16.4209 1.79938C16.9775 1.23372 17.627 0.794849 18.3691 0.482761C19.1113 0.170673 19.9121 0.00975275 20.7715 0C21.6309 0 22.4463 0.165797 23.2178 0.49739C23.9893 0.828983 24.6729 1.31174 25.2686 1.94567C25.9619 1.80913 26.6309 1.61896 27.2754 1.37514C27.9199 1.13132 28.5498 0.824107 29.165 0.453503C28.9404 1.16545 28.5986 1.81401 28.1396 2.39918C27.6807 2.98434 27.124 3.4671 26.4697 3.84746C27.7002 3.70117 28.877 3.37933 30 2.88194Z" fill="white"/>
</svg>
