<svg version="1.0"
    xmlns="http://www.w3.org/2000/svg"
    xmlns:xlink="http://www.w3.org/1999/xlink" preserveAspectRatio="xMidYMid meet">
    <symbol viewBox="0 0 42 42" id="mail">
        <g>
            <path d="M33 15V14C33 12.8954 32.1046 12 31 12H12C10.8954 12 10 12.8954 10 14V15M33 15V28.5C33 29.6046 32.1046 30.5 31 30.5H12C10.8954 30.5 10 29.6046 10 28.5V15M33 15L22.4251 20.5173C21.8455 20.8198 21.1545 20.8198 20.5749 20.5173L10 15"/>
        </g>
    </symbol>
    <symbol viewBox="0 0 42 42" id="mail-unread">
        <g>
            <path d="M33 15V14C33 12.8954 32.1046 12 31 12H12C10.8954 12 10 12.8954 10 14V15M33 15V28.5C33 29.6046 32.1046 30.5 31 30.5H12C10.8954 30.5 10 29.6046 10 28.5V15M33 15L22.4251 20.5173C21.8455 20.8198 21.1545 20.8198 20.5749 20.5173L10 15"/>
            <circle cx="33" cy="12" r="4.5" fill="#FF680A" stroke="white"/>
        </g>
    </symbol>
    <symbol viewBox="0 0 42 42" id="bookmark">
        <g>
            <path d="M14.4899 11H26.6166C26.7272 11 26.8293 11.0596 26.9315 11.1021C27.2769 11.2301 27.5735 11.4631 27.7796 11.7684C27.9856 12.0737 28.0908 12.4359 28.0803 12.8041C28.0803 18.4547 28.0803 24.1054 28.0803 29.7645C28.0888 29.8466 28.0888 29.9293 28.0803 30.0113C28.056 30.1865 28.0103 30.3579 27.9442 30.5219C27.8649 30.7056 27.7191 30.8526 27.5359 30.9331C27.3528 31.0136 27.1459 31.0218 26.957 30.9559C26.735 30.8836 26.5296 30.7679 26.3528 30.6155C24.6508 29.2114 23.0254 27.7902 21.3659 26.3605C21.2701 26.2721 21.1645 26.1951 21.0511 26.1308C20.8663 26.0325 20.6554 25.9944 20.4478 26.0219C20.2403 26.0493 20.0466 26.141 19.8937 26.284L14.8388 30.5389C14.6699 30.6868 14.4771 30.8048 14.2686 30.8878C14.1619 30.9359 14.0464 30.9614 13.9294 30.9627C13.8123 30.9641 13.6963 30.9413 13.5884 30.8957C13.4806 30.8502 13.3833 30.783 13.3027 30.6981C13.2221 30.6133 13.1598 30.5127 13.1198 30.4028C13.0378 30.1853 12.9973 29.9544 13.0006 29.722C13.0006 27.3562 13.0006 24.9932 13.0006 22.6331V12.7786C12.9912 12.4271 13.0908 12.0813 13.2859 11.7887C13.4809 11.4961 13.7618 11.2711 14.0899 11.1447C14.192 11.0851 14.3452 11.0511 14.4899 11Z" stroke-miterlimit="10"/>
        </g>
    </symbol>
    <symbol viewBox="0 0 42 42" id="back">
        <g>
            <path d="M30.2197 19.6889H15.4976L21.9295 13.257C22.4435 12.743 22.4435 11.8995 21.9295 11.3854C21.8075 11.2633 21.6627 11.1663 21.5033 11.1002C21.3438 11.034 21.1729 11 21.0003 11C20.8277 11 20.6567 11.034 20.4973 11.1002C20.3379 11.1663 20.193 11.2633 20.0711 11.3854L11.3854 20.0711C11.2633 20.193 11.1663 20.3379 11.1002 20.4973C11.034 20.6567 11 20.8277 11 21.0003C11 21.1729 11.034 21.3438 11.1002 21.5033C11.1663 21.6627 11.2633 21.8075 11.3854 21.9295L20.0711 30.6151C20.1931 30.7371 20.338 30.8339 20.4974 30.9C20.6568 30.966 20.8277 31 21.0003 31C21.1728 31 21.3437 30.966 21.5032 30.9C21.6626 30.8339 21.8074 30.7371 21.9295 30.6151C22.0515 30.4931 22.1483 30.3482 22.2143 30.1888C22.2804 30.0294 22.3144 29.8585 22.3144 29.6859C22.3144 29.5134 22.2804 29.3425 22.2143 29.183C22.1483 29.0236 22.0515 28.8788 21.9295 28.7567L15.4976 22.3249H30.2197C30.9446 22.3249 31.5377 21.7318 31.5377 21.0069C31.5377 20.282 30.9446 19.6889 30.2197 19.6889Z"/>
        </g>
    </symbol>
</svg>
