<svg version="1.0"
    xmlns="http://www.w3.org/2000/svg"
    xmlns:xlink="http://www.w3.org/1999/xlink" preserveAspectRatio="xMidYMid meet">
    <symbol viewBox="0 0 25 21" id="like">
        <g>
            <path d="M11.8004 3.76844L12.2222 4.43131L12.6441 3.76844C13.7185 2.08007 15.6145 1 17.7778 1C21.1683 1 23.9444 3.77614 23.9444 7.16667C23.9444 8.6829 23.2468 10.2459 22.1315 11.7668C21.02 13.2825 19.5271 14.7106 18.0167 15.9464C16.5088 17.1801 14.9983 18.2102 13.8635 18.9323C13.2966 19.2931 12.8246 19.5763 12.4951 19.7688C12.3892 19.8307 12.298 19.8833 12.2232 19.926C12.1482 19.8829 12.0569 19.8299 11.9507 19.7674C11.6211 19.5734 11.1491 19.2882 10.5821 18.9252C9.44709 18.1987 7.93643 17.1633 6.42826 15.926C4.91761 14.6865 3.42441 13.2565 2.31269 11.7431C1.19687 10.224 0.5 8.66819 0.5 7.16667C0.5 3.77614 3.27614 1 6.66667 1C8.82993 1 10.726 2.08007 11.8004 3.76844Z"/>
        </g>
    </symbol>

    <symbol viewBox="0 0 24 31" id="save">
        <g>
            <path d="M3.14287 1H20.5847C20.7439 1 20.8907 1.08567 21.0376 1.14687C21.5344 1.33093 21.961 1.6661 22.2574 2.10521C22.5538 2.54432 22.705 3.06528 22.69 3.59485C22.69 11.7221 22.69 19.8494 22.69 27.989C22.7022 28.107 22.7022 28.226 22.69 28.344C22.655 28.5959 22.5892 28.8425 22.4942 29.0783C22.3802 29.3426 22.1705 29.5539 21.907 29.6697C21.6436 29.7855 21.3461 29.7973 21.0744 29.7026C20.7551 29.5986 20.4597 29.4321 20.2053 29.213C17.7573 27.1934 15.4195 25.1493 13.0327 23.093C12.8949 22.9659 12.743 22.855 12.5799 22.7626C12.314 22.6212 12.0107 22.5664 11.7122 22.6059C11.4138 22.6454 11.1351 22.7773 10.9152 22.9829L3.64467 29.1028C3.40183 29.3155 3.12451 29.4852 2.82462 29.6046C2.6711 29.6737 2.50504 29.7104 2.33671 29.7124C2.16839 29.7143 2.00142 29.6815 1.84634 29.616C1.69126 29.5505 1.55137 29.4538 1.43538 29.3318C1.31939 29.2098 1.22983 29.0651 1.17226 28.907C1.05431 28.5942 0.996165 28.262 1.00089 27.9278C1.00089 24.5251 1.00089 21.1265 1.00089 17.7319V3.55817C0.987278 3.0526 1.13063 2.55523 1.41117 2.13442C1.69172 1.7136 2.09571 1.38995 2.56763 1.20806C2.71451 1.12238 2.93479 1.07344 3.14287 1Z"/>
        </g>
    </symbol>

    <symbol viewBox="0 0 45 42" id="star">
        <g>
            <path d="M12.9905 35.4413L12.9907 35.4422C12.6326 35.6237 12.1282 35.3188 12.2215 34.7887L12.2216 34.7885L13.8815 25.3288L13.9278 25.065L13.7339 24.8803L6.68851 18.1689C6.68847 18.1688 6.68843 18.1688 6.68839 18.1688C6.3088 17.8063 6.54348 17.187 6.97889 17.1258L6.97962 17.1257L16.7753 15.7337L17.0337 15.697L17.1513 15.464L21.5191 6.81042C21.5191 6.81037 21.5191 6.81032 21.5192 6.81028C21.7283 6.39657 22.2713 6.39657 22.4804 6.81028C22.4804 6.81032 22.4804 6.81037 22.4804 6.81042L26.8482 15.464L26.9658 15.697L27.2243 15.7337L37.0199 17.1257L37.0207 17.1258C37.4559 17.187 37.6905 17.8059 37.3096 18.1684L37.3093 18.1686L30.2656 24.8804L30.0717 25.0651L30.118 25.3288L31.778 34.7885L31.778 34.7887C31.8715 35.3198 31.3651 35.6248 31.0069 35.4412C31.0068 35.4412 31.0067 35.4411 31.0067 35.4411L22.2253 30.9294L21.9967 30.812L21.7682 30.9295L12.9905 35.4413Z"/>
        </g>
    </symbol>

    <symbol viewBox="0 0 20 17" id="warning">
        <g>
            <path d="M0.947038 17H18.4454C19.1725 17 19.6258 16.2162 19.267 15.5835L10.5131 0.474286C10.4308 0.330219 10.312 0.210464 10.1685 0.127169C10.025 0.043873 9.86211 0 9.69622 0C9.53034 0 9.3674 0.043873 9.22395 0.127169C9.08049 0.210464 8.96162 0.330219 8.87938 0.474286L0.125474 15.5835C-0.23337 16.2162 0.219907 17 0.947038 17ZM10.6453 14.167C10.1237 14.6886 9.27816 14.6886 8.75662 14.167C8.23508 13.6455 8.23508 12.7999 8.75662 12.2784C9.27816 11.7568 10.1237 11.7568 10.6453 12.2784C11.1668 12.7999 11.1668 13.6455 10.6453 14.167ZM9.70094 10.3897C9.18157 10.3897 8.75662 9.96477 8.75662 9.44539V5.94433C8.75662 5.42495 9.18157 5 9.70094 5C10.2203 5 10.6453 5.42495 10.6453 5.94433V9.44539C10.6453 9.96477 10.2203 10.3897 9.70094 10.3897Z"/>
        </g>
    </symbol>

    <symbol viewBox="0 0 17 14" id="mail">
        <g>
            <path d="M16.4612 2.69228V2.61536C16.4612 1.51079 15.5657 0.615356 14.4612 0.615356H2.53809C1.43352 0.615356 0.538086 1.51079 0.538086 2.61536V2.69228M16.4612 2.69228V11.423C16.4612 12.5276 15.5657 13.423 14.4612 13.423H2.53809C1.43352 13.423 0.538086 12.5276 0.538086 11.423V2.69228M16.4612 2.69228L9.42476 6.36345C8.84508 6.66589 8.15417 6.66589 7.57449 6.36345L0.538086 2.69228"/>
        </g>
    </symbol>

    <symbol viewBox="0 0 17 17" id="close">
        <g>
            <path d="M13.2223 3.77734L3.77783 13.2218M3.77783 3.77734L13.2223 13.2218"/>
        </g>
    </symbol>

    <symbol viewBox="0 0 17 13" id="valid">
        <g>
            <path d="M16.3998 0.407074C16.0532 0.114572 15.6032 -0.0299788 15.1487 0.00519234C14.6942 0.0403635 14.2725 0.252379 13.9761 0.594639L6.57425 9.14708L2.59223 5.86287C2.43459 5.7289 2.25156 5.62722 2.0538 5.56375C1.85603 5.50028 1.64747 5.47627 1.44023 5.49314C1.23299 5.51 1.03121 5.56739 0.846621 5.66198C0.662031 5.75657 0.498314 5.88646 0.364984 6.04411C0.231655 6.20176 0.131373 6.38402 0.0699691 6.5803C0.00856516 6.77658 -0.0127362 6.98296 0.00730298 7.18744C0.0273421 7.39192 0.0883221 7.59043 0.186698 7.77142C0.285075 7.95242 0.418884 8.11229 0.58035 8.24174L5.91532 12.6426C6.07982 12.7781 6.27081 12.8787 6.47638 12.9381C6.68195 12.9974 6.8977 13.0144 7.11018 12.9878C7.33553 12.9706 7.55523 12.9096 7.75671 12.8085C7.95819 12.7073 8.1375 12.5678 8.28436 12.3981L16.5886 2.8009C16.8843 2.45825 17.0304 2.01368 16.9947 1.56475C16.9591 1.11583 16.7446 0.699215 16.3984 0.406344"/>
        </g>
    </symbol>

    <symbol viewBox="0 0 17 16" id="invalid">
        <g>
            <path d="M0.830202 15.4515H16.1698C16.8072 15.4515 17.2046 14.7644 16.89 14.2098L9.21607 0.964602C9.14398 0.838308 9.03977 0.733327 8.91401 0.660308C8.78825 0.587289 8.64542 0.548828 8.5 0.548828C8.35458 0.548828 8.21175 0.587289 8.08599 0.660308C7.96023 0.733327 7.85602 0.838308 7.78393 0.964602L0.109994 14.2098C-0.204579 14.7644 0.192777 15.4515 0.830202 15.4515ZM9.33196 12.9681C8.87477 13.4253 8.13351 13.4253 7.67632 12.9681C7.21912 12.5109 7.21912 11.7696 7.67632 11.3124C8.13351 10.8552 8.87477 10.8552 9.33196 11.3124C9.78916 11.7696 9.78916 12.5109 9.33196 12.9681ZM8.50414 9.65676C8.04884 9.65676 7.67632 9.28424 7.67632 8.82894V5.7598C7.67632 5.3045 8.04884 4.93198 8.50414 4.93198C8.95944 4.93198 9.33196 5.3045 9.33196 5.7598V8.82894C9.33196 9.28424 8.95944 9.65676 8.50414 9.65676Z"/>
        </g>
    </symbol>

    <symbol viewBox="0 0 20 20" id="google">
        <g>
            <path fill-rule="evenodd" clip-rule="evenodd" d="M19.5998 10.2271C19.5998 9.51798 19.5362 8.83617 19.418 8.18164H10V12.0497H15.3817C15.1499 13.2997 14.4454 14.3588 13.3863 15.0679V17.5769H16.618C18.5089 15.836 19.5998 13.2724 19.5998 10.2271Z" fill="#4285F4"/>
            <path fill-rule="evenodd" clip-rule="evenodd" d="M9.99966 19.9993C12.6996 19.9993 14.9632 19.1038 16.6177 17.5766L13.386 15.0675C12.4905 15.6675 11.3451 16.0221 9.99966 16.0221C7.39517 16.0221 5.19067 14.263 4.40432 11.8994H1.06348V14.4903C2.7089 17.7584 6.09065 19.9993 9.99966 19.9993Z" fill="#34A853"/>
            <path fill-rule="evenodd" clip-rule="evenodd" d="M4.40446 11.9001C4.20446 11.3001 4.09083 10.6592 4.09083 10.0001C4.09083 9.34102 4.20446 8.70012 4.40446 8.10013V5.50928H1.06361C0.386356 6.85925 0 8.38649 0 10.0001C0 11.6137 0.386356 13.1409 1.06361 14.4909L4.40446 11.9001Z" fill="#FBBC05"/>
            <path fill-rule="evenodd" clip-rule="evenodd" d="M9.99966 3.97719C11.4678 3.97719 12.786 4.48173 13.8223 5.47262L16.6904 2.60449C14.9587 0.990889 12.6951 0 9.99966 0C6.09065 0 2.7089 2.24086 1.06348 5.50898L4.40432 8.09984C5.19067 5.73625 7.39517 3.97719 9.99966 3.97719Z" fill="#EA4335"/>
        </g>
    </symbol>

    <symbol viewBox="0 0 35 30" id="image">
        <g>
            <path d="M13.3573 9.643C13.3573 10.4955 13.0186 11.313 12.4158 11.9158C11.813 12.5186 10.9955 12.8573 10.143 12.8573C9.29051 12.8573 8.47295 12.5186 7.87015 11.9158C7.26736 11.313 6.92871 10.4955 6.92871 9.643C6.92871 8.79051 7.26736 7.97295 7.87015 7.37015C8.47295 6.76736 9.29051 6.42871 10.143 6.42871C10.9955 6.42871 11.813 6.76736 12.4158 7.37015C13.0186 7.97295 13.3573 8.79051 13.3573 9.643Z"/>
            <path d="M4.78571 0C3.64907 0 2.55898 0.451529 1.75526 1.25526C0.951529 2.05898 0.5 3.14907 0.5 4.28571V25.7143C0.5 26.8509 0.951529 27.941 1.75526 28.7447C2.55898 29.5485 3.64907 30 4.78571 30H30.5C31.6366 30 32.7267 29.5485 33.5305 28.7447C34.3342 27.941 34.7857 26.8509 34.7857 25.7143V4.28571C34.7857 3.14907 34.3342 2.05898 33.5305 1.25526C32.7267 0.451529 31.6366 0 30.5 0H4.78571ZM30.5 2.14286C31.0683 2.14286 31.6134 2.36862 32.0152 2.77049C32.4171 3.17235 32.6429 3.71739 32.6429 4.28571V18.2143L24.5493 14.0421C24.3483 13.9415 24.1208 13.9066 23.8989 13.9423C23.677 13.9781 23.472 14.0827 23.3129 14.2414L15.3629 22.1914L9.66286 18.3943C9.45706 18.2573 9.2102 18.1956 8.96415 18.2199C8.7181 18.2441 8.488 18.3526 8.31286 18.5271L2.64286 23.5714V4.28571C2.64286 3.71739 2.86862 3.17235 3.27049 2.77049C3.67235 2.36862 4.21739 2.14286 4.78571 2.14286H30.5Z"/>
        </g>
    </symbol>

    <symbol viewBox="0 0 30 60" id="text">
        <g>
            <path d="M24.6574 20.072C24.5614 19.336 24.1294 18.968 23.3614 18.968H17.8894C17.8574 19.928 17.8254 20.888 17.7934 21.848C17.7934 22.808 17.7934 23.8 17.7934 24.824V38.552C17.7934 39.352 17.7934 40.152 17.7934 40.952C17.8254 41.72 17.8414 42.504 17.8414 43.304C17.9054 44.104 18.2894 44.52 18.9934 44.552L21.1534 44.792C21.9214 44.888 22.3054 45.272 22.3054 45.944C22.3054 46.648 21.9054 47 21.1054 47H8.91338C8.11338 47 7.71338 46.648 7.71338 45.944C7.71338 45.24 8.09738 44.856 8.86538 44.792L11.0254 44.552C11.7614 44.456 12.1454 44.04 12.1774 43.304C12.1774 42.536 12.1774 41.768 12.1774 41C12.2094 40.2 12.2254 39.416 12.2254 38.648V24.92C12.2254 23.896 12.2094 22.904 12.1774 21.944C12.1774 20.952 12.1614 19.96 12.1294 18.968H6.65738C5.88938 18.968 5.45738 19.336 5.36138 20.072L4.78538 23.816C4.68938 24.552 4.25738 24.92 3.48938 24.92H2.72138C1.92138 24.92 1.53738 24.52 1.56938 23.72L1.76138 17.72C1.82538 16.92 2.24138 16.52 3.00938 16.52H27.0094C27.7774 16.52 28.1934 16.92 28.2574 17.72L28.4494 23.72C28.4814 24.52 28.0974 24.92 27.2974 24.92H26.5294C25.7614 24.92 25.3294 24.552 25.2334 23.816L24.6574 20.072Z"/>
        </g>
    </symbol>

    <symbol viewBox="0 0 10 10" id="cross">
        <g>
            <path d="M9.28571 5.71429H5.71429V9.28571C5.71429 9.47515 5.63903 9.65684 5.50508 9.79079C5.37112 9.92474 5.18944 10 5 10C4.81056 10 4.62888 9.92474 4.49492 9.79079C4.36097 9.65684 4.28571 9.47515 4.28571 9.28571V5.71429H0.714286C0.524845 5.71429 0.343164 5.63903 0.20921 5.50508C0.075255 5.37112 0 5.18944 0 5C0 4.81056 0.075255 4.62888 0.20921 4.49492C0.343164 4.36097 0.524845 4.28571 0.714286 4.28571H4.28571V0.714286C4.28571 0.524845 4.36097 0.343164 4.49492 0.209209C4.62888 0.0752547 4.81056 0 5 0C5.18944 0 5.37112 0.0752547 5.50508 0.209209C5.63903 0.343164 5.71429 0.524845 5.71429 0.714286V4.28571H9.28571C9.47515 4.28571 9.65684 4.36097 9.79079 4.49492C9.92475 4.62888 10 4.81056 10 5C10 5.18944 9.92475 5.37112 9.79079 5.50508C9.65684 5.63903 9.47515 5.71429 9.28571 5.71429Z"/>
        </g>
    </symbol>

    <symbol viewBox="0 0 18 20" id="remove">
        <g>
            <path d="M3.33333 20C2.72222 20 2.19926 19.7826 1.76444 19.3478C1.32889 18.9122 1.11111 18.3889 1.11111 17.7778V3.33333C0.796296 3.33333 0.532222 3.22704 0.318889 3.01444C0.106296 2.80111 0 2.53704 0 2.22222C0 1.90741 0.106296 1.64333 0.318889 1.43C0.532222 1.21741 0.796296 1.11111 1.11111 1.11111H5.55556C5.55556 0.796296 5.66222 0.532222 5.87556 0.318889C6.08815 0.106296 6.35185 0 6.66667 0H11.1111C11.4259 0 11.69 0.106296 11.9033 0.318889C12.1159 0.532222 12.2222 0.796296 12.2222 1.11111H16.6667C16.9815 1.11111 17.2452 1.21741 17.4578 1.43C17.6711 1.64333 17.7778 1.90741 17.7778 2.22222C17.7778 2.53704 17.6711 2.80111 17.4578 3.01444C17.2452 3.22704 16.9815 3.33333 16.6667 3.33333V17.7778C16.6667 18.3889 16.4493 18.9122 16.0144 19.3478C15.5789 19.7826 15.0556 20 14.4444 20H3.33333ZM3.33333 3.33333V17.7778H14.4444V3.33333H3.33333ZM5.55556 14.4444C5.55556 14.7593 5.66222 15.023 5.87556 15.2356C6.08815 15.4489 6.35185 15.5556 6.66667 15.5556C6.98148 15.5556 7.24556 15.4489 7.45889 15.2356C7.67148 15.023 7.77778 14.7593 7.77778 14.4444V6.66667C7.77778 6.35185 7.67148 6.08778 7.45889 5.87444C7.24556 5.66185 6.98148 5.55556 6.66667 5.55556C6.35185 5.55556 6.08815 5.66185 5.87556 5.87444C5.66222 6.08778 5.55556 6.35185 5.55556 6.66667V14.4444ZM10 14.4444C10 14.7593 10.1067 15.023 10.32 15.2356C10.5326 15.4489 10.7963 15.5556 11.1111 15.5556C11.4259 15.5556 11.69 15.4489 11.9033 15.2356C12.1159 15.023 12.2222 14.7593 12.2222 14.4444V6.66667C12.2222 6.35185 12.1159 6.08778 11.9033 5.87444C11.69 5.66185 11.4259 5.55556 11.1111 5.55556C10.7963 5.55556 10.5326 5.66185 10.32 5.87444C10.1067 6.08778 10 6.35185 10 6.66667V14.4444ZM3.33333 3.33333V17.7778V3.33333Z"/>
        </g>
    </symbol>

    <symbol viewBox="0 0 24 24" id="arrow-up">
        <g>
            <path d="M10.5 22C10.5 22.8284 11.1716 23.5 12 23.5C12.8284 23.5 13.5 22.8284 13.5 22L10.5 22ZM13.0607 0.939341C12.4749 0.353554 11.5251 0.353554 10.9393 0.939341L1.3934 10.4853C0.807611 11.0711 0.807611 12.0208 1.3934 12.6066C1.97918 13.1924 2.92893 13.1924 3.51472 12.6066L12 4.12132L20.4853 12.6066C21.0711 13.1924 22.0208 13.1924 22.6066 12.6066C23.1924 12.0208 23.1924 11.0711 22.6066 10.4853L13.0607 0.939341ZM13.5 22L13.5 2L10.5 2L10.5 22L13.5 22Z" fill="white"/>
        </g>
    </symbol>

    <symbol viewBox="0 0 120 120" id="loader">
        <g>
            <path d="M60 -2.62268e-06C93.1371 -4.07115e-06 120 26.8629 120 60C120 93.1371 93.1371 120 60 120C26.8629 120 -1.17422e-06 93.1371 -2.62268e-06 60C-4.07115e-06 26.8629 26.8629 -1.17422e-06 60 -2.62268e-06ZM60 106.04C85.4272 106.04 106.04 85.4272 106.04 60C106.04 34.5728 85.4272 13.96 60 13.96C34.5728 13.9601 13.96 34.5728 13.96 60C13.96 85.4272 34.5728 106.04 60 106.04Z" fill="white"/>
            <path d="M60 -2.62268e-06C93.1371 -4.07115e-06 120 26.8629 120 60C120 93.1371 93.1371 120 60 120C26.8629 120 -1.17422e-06 93.1371 -2.62268e-06 60C-4.07115e-06 26.8629 26.8629 -1.17422e-06 60 -2.62268e-06ZM60 106.04C85.4272 106.04 106.04 85.4272 106.04 60C106.04 34.5728 85.4272 13.96 60 13.96C34.5728 13.9601 13.96 34.5728 13.96 60C13.96 85.4272 34.5728 106.04 60 106.04Z" fill="url(#paint0_angular_2115_14727)"/>
            <circle cx="113" cy="60" r="7" transform="rotate(-90 113 60)" fill="#FF680A"/>
            <defs>
                <radialGradient id="paint0_angular_2115_14727" cx="0" cy="0" r="1" gradientUnits="userSpaceOnUse" gradientTransform="translate(60 60) scale(60)">
                    <stop stop-color="#FF680A"/>
                    <stop offset="1" stop-color="#FF680A" stop-opacity="0"/>
                </radialGradient>
            </defs>
        </g>
    </symbol>
</svg>

