<svg width="120" height="120" viewBox="0 0 120 120" fill="none" xmlns="http://www.w3.org/2000/svg">
<path d="M60 -2.62268e-06C93.1371 -4.07115e-06 120 26.8629 120 60C120 93.1371 93.1371 120 60 120C26.8629 120 -1.17422e-06 93.1371 -2.62268e-06 60C-4.07115e-06 26.8629 26.8629 -1.17422e-06 60 -2.62268e-06ZM60 106.04C85.4272 106.04 106.04 85.4272 106.04 60C106.04 34.5728 85.4272 13.96 60 13.96C34.5728 13.9601 13.96 34.5728 13.96 60C13.96 85.4272 34.5728 106.04 60 106.04Z" fill="white"/>
<path d="M60 -2.62268e-06C93.1371 -4.07115e-06 120 26.8629 120 60C120 93.1371 93.1371 120 60 120C26.8629 120 -1.17422e-06 93.1371 -2.62268e-06 60C-4.07115e-06 26.8629 26.8629 -1.17422e-06 60 -2.62268e-06ZM60 106.04C85.4272 106.04 106.04 85.4272 106.04 60C106.04 34.5728 85.4272 13.96 60 13.96C34.5728 13.9601 13.96 34.5728 13.96 60C13.96 85.4272 34.5728 106.04 60 106.04Z" fill="url(#paint0_angular_2115_14727)"/>
<circle cx="113" cy="60" r="7" transform="rotate(-90 113 60)" fill="#FF680A"/>
<defs>
<radialGradient id="paint0_angular_2115_14727" cx="0" cy="0" r="1" gradientUnits="userSpaceOnUse" gradientTransform="translate(60 60) scale(60)">
<stop stop-color="#FF680A"/>
<stop offset="1" stop-color="#FF680A" stop-opacity="0"/>
</radialGradient>
</defs>
</svg>
