<svg width="20" height="21" viewBox="0 0 20 21" fill="none" xmlns="http://www.w3.org/2000/svg">
<path d="M16.9065 20.9988C16.5624 20.9983 16.2208 20.9415 15.8953 20.8306L10.2523 18.9195C10.2209 18.9089 10.1909 18.8946 10.1628 18.8771L9.99988 18.7759L9.83719 18.8771C9.80915 18.8946 9.77912 18.9088 9.74774 18.9193L4.10491 20.8303C3.63777 20.9885 3.13939 21.0338 2.65113 20.9623C2.16286 20.8908 1.69879 20.7047 1.29743 20.4194C0.896075 20.1341 0.569002 19.7578 0.343357 19.3217C0.117713 18.8857 4.17013e-06 18.4024 6.27394e-07 17.9121V8.94101C-0.000284645 8.49559 0.0967172 8.05541 0.284312 7.65086C0.471906 7.2463 0.745627 6.887 1.08658 6.59774L7.98321 0.73982C8.54526 0.262362 9.26047 0 10 0C10.7395 0 11.4547 0.262362 12.0168 0.73982L18.9141 6.59656C19.2551 6.88601 19.5288 7.24553 19.7163 7.6503C19.9037 8.05507 20.0005 8.49545 20 8.94101V17.9133C19.9991 18.7293 19.6733 19.5119 19.0937 20.0901C18.5142 20.6684 17.7279 20.9955 16.9065 21V20.9988ZM10.8806 18.2288L16.173 20.021C16.5106 20.1354 16.8707 20.1681 17.2236 20.1165C17.5765 20.0648 17.9118 19.9303 18.2019 19.724C18.4919 19.5178 18.7282 19.2458 18.8912 18.9307C19.0542 18.6155 19.1392 18.2662 19.1391 17.9119V8.94101C19.1393 8.61916 19.0692 8.30109 18.9337 8.00876C18.7982 7.71643 18.6004 7.45679 18.354 7.24778L11.4574 1.38867C11.0522 1.04161 10.535 0.850683 10 0.850683C9.46499 0.850683 8.94779 1.04161 8.5426 1.38867L1.64621 7.2466C1.39966 7.45573 1.20176 7.71554 1.06617 8.00809C0.930588 8.30064 0.860555 8.61894 0.860915 8.94101V17.9133C0.860797 18.2677 0.945767 18.6169 1.10877 18.9321C1.27176 19.2472 1.50809 19.5192 1.79812 19.7255C2.08815 19.9317 2.42352 20.0662 2.77639 20.1179C3.12925 20.1695 3.48942 20.1368 3.82701 20.0225L9.1194 18.2304L8.77375 18.0155C8.76397 18.0093 8.75467 18.0029 8.74536 17.9963C8.22788 17.6141 7.73296 17.2026 7.26303 16.764C6.41333 15.9708 5.35108 14.9025 4.67289 13.6711C4.02142 12.4888 3.82891 11.3364 4.10038 10.2461C4.25073 9.64618 4.55612 9.09569 4.98634 8.64905C5.44722 8.17746 6.00231 7.88881 6.59176 7.81464C7.23584 7.73335 7.94862 7.94095 8.70886 8.43079C9.24726 8.77796 9.68858 9.18913 9.99988 9.519C10.31 9.18889 10.7523 8.77796 11.2907 8.43079C12.0509 7.94047 12.7632 7.73312 13.4078 7.81464C13.9972 7.88881 14.5528 8.17746 15.0132 8.64905C15.4434 9.09508 15.7489 9.64502 15.8994 10.2444C16.1711 11.3345 15.9786 12.4872 15.3269 13.6695C14.6484 14.9018 13.5855 15.9682 12.7367 16.7623C12.2668 17.201 11.7718 17.6125 11.2542 17.9946C11.2451 18.0012 11.2356 18.0076 11.2258 18.0138L10.8806 18.2288ZM9.24488 17.2979L9.99988 17.7671L10.7551 17.2979C11.2411 16.9381 11.7061 16.5511 12.1478 16.1388C12.9507 15.389 13.9521 14.3852 14.5721 13.2588C15.1241 12.2564 15.2851 11.3376 15.0638 10.4496C14.8305 9.5126 14.0886 8.76043 13.2999 8.66113C12.361 8.54264 11.1039 9.49838 10.3336 10.4364C10.2932 10.4856 10.2423 10.5252 10.1845 10.5524C10.1267 10.5797 10.0636 10.5938 9.99964 10.5937C9.93571 10.5937 9.87258 10.5796 9.81482 10.5524C9.75706 10.5252 9.70611 10.4855 9.66568 10.4364C8.89541 9.49838 7.63803 8.54312 6.69958 8.66113C5.91095 8.76043 5.16907 9.5126 4.93434 10.4496C4.71321 11.3376 4.87399 12.2564 5.42622 13.2588C6.04644 14.3842 7.04834 15.389 7.85057 16.1388C8.29273 16.5512 8.75826 16.9382 9.24488 17.2979Z" fill="white"/>
</svg>
