<svg width="122" height="18" viewBox="0 0 122 18" fill="none" xmlns="http://www.w3.org/2000/svg">
<path d="M0.38 15.96V0.76L3.86 0.439999L5.86 1.44V16.64L2.38 16.94L0.38 15.96ZM0.58 0.94V15.74L3.66 15.46V0.66L0.58 0.94ZM13.5022 15.92V9.66C13.3422 9.82 13.2422 10.0067 13.2022 10.22V16.86L10.1822 17.16L8.18219 16.16V5.18L11.2422 4.9L11.8822 5.42C12.1089 5.23333 12.3555 5.06667 12.6222 4.92C12.8889 4.76 13.2089 4.66667 13.5822 4.64C13.6489 4.64 13.7089 4.64 13.7622 4.64C13.8155 4.62667 13.8689 4.62 13.9222 4.62C14.5222 4.62 15.1089 4.72667 15.6822 4.94C16.2689 5.15333 16.7889 5.45333 17.2422 5.84C17.7089 6.21333 18.0755 6.65333 18.3422 7.16C18.6222 7.66667 18.7622 8.21333 18.7622 8.8V16.62L15.5022 16.9L13.5022 15.92ZM16.5622 7.48C16.5622 6.56 16.3089 5.88667 15.8022 5.46C15.3089 5.03333 14.6955 4.82 13.9622 4.82C13.9089 4.82 13.8489 4.82 13.7822 4.82C13.7289 4.82 13.6689 4.82667 13.6022 4.84C12.9489 4.89333 12.3955 5.14667 11.9422 5.6C11.4889 6.04 11.2089 6.55333 11.1022 7.14H11.0422V5.12L8.38219 5.36V15.96L11.2422 15.7V9.2C11.3089 8.88 11.4555 8.58667 11.6822 8.32C11.9222 8.05333 12.2289 7.9 12.6022 7.86H12.6822C12.9622 7.86 13.2022 7.96 13.4022 8.16C13.6022 8.34667 13.7022 8.66 13.7022 9.1V15.7L16.5622 15.44V7.48ZM28.4431 16.94C28.1365 16.9533 27.8365 16.9667 27.5431 16.98C27.2631 17.0067 26.9898 17.02 26.7231 17.02C24.8298 17.02 23.4298 16.6733 22.5231 15.98C21.6165 15.2867 21.1631 14.1467 21.1631 12.56V8.74L19.8831 8.1V5.08L21.1631 4.98V1.72L24.4031 1.42L26.4031 2.42V4.72L28.0631 5.54V8.56L26.4031 8.7V12.72L27.0831 12.66L29.0831 13.66L28.4431 16.94ZM26.8231 12.9C26.5298 12.9267 26.2698 12.9533 26.0431 12.98C25.8298 12.9933 25.6298 13 25.4431 13C24.8831 13 24.5365 12.9 24.4031 12.7C24.2698 12.5 24.2031 12.1533 24.2031 11.66V7.52L25.8631 7.38V4.76L24.2031 4.9V1.64L21.3631 1.9V5.16L20.0831 5.26V7.88L21.3631 7.78V12.56C21.3631 13.36 21.4631 14 21.6631 14.48C21.8631 14.96 22.2031 15.3067 22.6831 15.52C23.1765 15.7333 23.8565 15.84 24.7231 15.84C24.9498 15.84 25.1898 15.8333 25.4431 15.82C25.6965 15.8067 25.9698 15.7867 26.2631 15.76L26.8231 12.9ZM41.2325 13.32C40.8725 14.44 40.3392 15.3467 39.6325 16.04C38.9392 16.7333 37.9925 17.1333 36.7925 17.24C36.6458 17.2533 36.4992 17.26 36.3525 17.26C36.2192 17.2733 36.0792 17.28 35.9325 17.28C34.7725 17.28 33.7258 17.04 32.7925 16.56C31.8725 16.0933 31.1392 15.3867 30.5925 14.44C30.0458 13.4933 29.7725 12.32 29.7725 10.92C29.7725 9.69333 29.9792 8.63333 30.3925 7.74C30.8192 6.84667 31.3925 6.14667 32.1125 5.64C32.8458 5.12 33.6792 4.82 34.6125 4.74C34.7058 4.72667 34.7992 4.72 34.8925 4.72C34.9992 4.72 35.0992 4.72 35.1925 4.72C35.9392 4.72 36.6725 4.85333 37.3925 5.12C38.1258 5.37333 38.7858 5.77333 39.3725 6.32C39.9725 6.86667 40.4458 7.57333 40.7925 8.44C41.1525 9.29333 41.3325 10.32 41.3325 11.52C41.3325 11.6267 41.3325 11.74 41.3325 11.86C41.3325 11.9667 41.3258 12.0733 41.3125 12.18L39.2125 12.36L41.2325 13.32ZM36.5125 11.78C36.3925 12.2333 36.1725 12.6067 35.8525 12.9C35.5325 13.1933 35.1192 13.3667 34.6125 13.42H34.4525C33.9992 13.42 33.6258 13.2533 33.3325 12.92C33.0392 12.5867 32.8925 12.1267 32.8925 11.54L39.1125 11C39.1258 10.8667 39.1325 10.74 39.1325 10.62C39.1325 10.4867 39.1325 10.36 39.1325 10.24C39.1325 8.56 38.7725 7.25333 38.0525 6.32C37.3325 5.38667 36.3392 4.92 35.0725 4.92C35.0058 4.92 34.9325 4.92 34.8525 4.92C34.7858 4.92 34.7125 4.92667 34.6325 4.94C33.7392 5.00667 32.9392 5.29333 32.2325 5.8C31.5258 6.29333 30.9725 6.97333 30.5725 7.84C30.1725 8.70667 29.9725 9.73333 29.9725 10.92C29.9725 12.64 30.3592 13.9267 31.1325 14.78C31.9058 15.6333 32.9325 16.06 34.2125 16.06C34.3058 16.06 34.3992 16.06 34.4925 16.06C34.5858 16.06 34.6792 16.0533 34.7725 16.04C35.9192 15.9467 36.8258 15.5733 37.4925 14.92C38.1725 14.2667 38.6592 13.4533 38.9525 12.48L36.5125 11.78ZM32.9925 9.3C32.9925 8.86 33.1458 8.48 33.4525 8.16C33.7592 7.84 34.1525 7.66 34.6325 7.62H34.8125C35.2125 7.62 35.5392 7.74 35.7925 7.98C36.0592 8.20667 36.1925 8.55333 36.1925 9.02L32.9925 9.3ZM34.6125 12.78C34.6125 12.8467 34.6392 12.9133 34.6925 12.98C34.7592 13.0467 34.8258 13.1133 34.8925 13.18C35.1325 13.1133 35.3192 13.0333 35.4525 12.94C35.5858 12.8467 35.6992 12.7533 35.7925 12.66L34.6125 12.78ZM42.733 16.06V5.08L45.953 4.78L46.453 5.02C46.853 4.62 47.3196 4.4 47.853 4.36H48.113C48.3396 4.36 48.553 4.38 48.753 4.42C48.953 4.44667 49.1463 4.48 49.333 4.52L51.333 5.52L51.713 8.96C51.0996 8.72 50.5796 8.6 50.153 8.6C50.0863 8.6 50.013 8.6 49.933 8.6C49.8663 8.6 49.7996 8.60667 49.733 8.62C49.413 8.64667 49.1196 8.76667 48.853 8.98C48.5863 9.19333 48.373 9.46667 48.213 9.8C48.0663 10.12 47.993 10.4533 47.993 10.8V16.76L44.733 17.06L42.733 16.06ZM45.793 9.8C45.793 9.41333 45.8796 9.04667 46.053 8.7C46.2263 8.34 46.4596 8.04667 46.753 7.82C47.0463 7.58 47.3663 7.44667 47.713 7.42C47.793 7.40667 47.873 7.4 47.953 7.4C48.033 7.4 48.1063 7.4 48.173 7.4C48.413 7.4 48.633 7.42667 48.833 7.48C49.0463 7.52 49.2596 7.58 49.473 7.66L49.133 4.7C49.013 4.67333 48.8663 4.64667 48.693 4.62C48.5196 4.58 48.3263 4.56 48.113 4.56H47.873C47.4063 4.6 46.973 4.81333 46.573 5.2C46.1863 5.57333 45.933 6.05333 45.813 6.64H45.753V5L42.933 5.26V15.86L45.793 15.6V9.8ZM52.7353 15.94V4.94L54.0953 4.84L52.6953 4.14V0.74L56.0353 0.46L58.0353 1.46V4.86L56.6153 4.98L57.9753 5.66V16.64L54.7353 16.92L52.7353 15.94ZM52.8953 0.92V3.92L55.8353 3.68V0.679999L52.8953 0.92ZM52.9353 5.12V15.72L55.7753 15.48V4.88L52.9353 5.12ZM66.4391 17.22C66.3057 17.2333 66.1657 17.24 66.0191 17.24C65.8857 17.2533 65.7457 17.26 65.5991 17.26C64.3991 17.26 63.3391 17.0133 62.4191 16.52C61.4991 16.0267 60.7791 15.3067 60.2591 14.36C59.7524 13.4 59.4991 12.2467 59.4991 10.9C59.4991 9.84667 59.6724 8.87333 60.0191 7.98C60.3791 7.07333 60.9191 6.32667 61.6391 5.74C62.3724 5.15333 63.2924 4.81333 64.3991 4.72C64.5057 4.70667 64.6124 4.7 64.7191 4.7C64.8257 4.7 64.9324 4.7 65.0391 4.7C65.8924 4.7 66.6924 4.85333 67.4391 5.16C68.1991 5.46667 68.8657 5.9 69.4391 6.46C70.0257 7.02 70.4857 7.69333 70.8191 8.48C71.1524 9.25333 71.3191 10.1133 71.3191 11.06C71.3191 12.1133 71.1391 13.0933 70.7791 14C70.4324 14.8933 69.8991 15.6267 69.1791 16.2C68.4591 16.7733 67.5457 17.1133 66.4391 17.22ZM64.4191 16.02C65.4857 15.9267 66.3657 15.6 67.0591 15.04C67.7524 14.48 68.2657 13.7667 68.5991 12.9C68.9457 12.02 69.1191 11.0733 69.1191 10.06C69.1191 9.08667 68.9657 8.21333 68.6591 7.44C68.3657 6.66667 67.9057 6.05333 67.2791 5.6C66.6657 5.13333 65.8791 4.9 64.9191 4.9C64.8391 4.9 64.7591 4.9 64.6791 4.9C64.5991 4.9 64.5124 4.90667 64.4191 4.92C63.3524 5.01333 62.4657 5.34667 61.7591 5.92C61.0657 6.48 60.5457 7.19333 60.1991 8.06C59.8657 8.92667 59.6991 9.87333 59.6991 10.9C59.6991 11.86 59.8524 12.7333 60.1591 13.52C60.4657 14.2933 60.9324 14.9067 61.5591 15.36C62.1857 15.8133 62.9724 16.04 63.9191 16.04C63.9991 16.04 64.0791 16.04 64.1591 16.04C64.2391 16.04 64.3257 16.0333 64.4191 16.02ZM64.2391 13.26C63.7457 13.26 63.3591 13.0467 63.0791 12.62C62.8124 12.1933 62.6791 11.5333 62.6791 10.64C62.6791 9.70667 62.8324 9.00667 63.1391 8.54C63.4457 8.06 63.8724 7.79333 64.4191 7.74H64.5991C65.0924 7.74 65.4724 7.95333 65.7391 8.38C66.0057 8.79333 66.1391 9.44 66.1391 10.32C66.1391 11.2533 65.9857 11.9667 65.6791 12.46C65.3857 12.94 64.9657 13.2067 64.4191 13.26H64.2391ZM64.9991 12.88C65.6257 12.5333 65.9391 11.68 65.9391 10.32C65.9391 9.85333 65.8991 9.45333 65.8191 9.12C65.4724 9.17333 65.2257 9.41333 65.0791 9.84C64.9457 10.2533 64.8791 10.8533 64.8791 11.64C64.8791 12.12 64.9191 12.5333 64.9991 12.88ZM72.7134 16.06V5.08L75.9334 4.78L76.4334 5.02C76.8334 4.62 77.3001 4.4 77.8334 4.36H78.0934C78.3201 4.36 78.5334 4.38 78.7334 4.42C78.9334 4.44667 79.1268 4.48 79.3134 4.52L81.3134 5.52L81.6934 8.96C81.0801 8.72 80.5601 8.6 80.1334 8.6C80.0668 8.6 79.9934 8.6 79.9134 8.6C79.8468 8.6 79.7801 8.60667 79.7134 8.62C79.3934 8.64667 79.1001 8.76667 78.8334 8.98C78.5668 9.19333 78.3534 9.46667 78.1934 9.8C78.0468 10.12 77.9734 10.4533 77.9734 10.8V16.76L74.7134 17.06L72.7134 16.06ZM75.7734 9.8C75.7734 9.41333 75.8601 9.04667 76.0334 8.7C76.2068 8.34 76.4401 8.04667 76.7334 7.82C77.0268 7.58 77.3468 7.44667 77.6934 7.42C77.7734 7.40667 77.8534 7.4 77.9334 7.4C78.0134 7.4 78.0868 7.4 78.1534 7.4C78.3934 7.4 78.6134 7.42667 78.8134 7.48C79.0268 7.52 79.2401 7.58 79.4534 7.66L79.1134 4.7C78.9934 4.67333 78.8468 4.64667 78.6734 4.62C78.5001 4.58 78.3068 4.56 78.0934 4.56H77.8534C77.3868 4.6 76.9534 4.81333 76.5534 5.2C76.1668 5.57333 75.9134 6.05333 75.7934 6.64H75.7334V5L72.9134 5.26V15.86L75.7734 15.6V9.8ZM89.6958 15.86V10.54L88.3958 10.66V16.92L84.9558 17.22L82.9558 16.22V1.02L86.3958 0.719999L88.3958 1.72V6.22L89.6958 6.1V0.64L93.1558 0.319999L95.1558 1.32V16.54L91.6958 16.84L89.6958 15.86ZM89.8958 0.819999V6.28L86.1958 6.6V0.94L83.1558 1.2V16L86.1958 15.76V9.48L89.8958 9.16V15.64L92.9558 15.36V0.539999L89.8958 0.819999ZM104.241 16.56C104.095 16.6933 103.861 16.82 103.541 16.94C103.235 17.06 102.901 17.1333 102.541 17.16C102.475 17.1733 102.401 17.18 102.321 17.18C102.241 17.18 102.168 17.18 102.101 17.18C101.568 17.18 101.021 17.1067 100.461 16.96C99.9147 16.8267 99.4081 16.6067 98.9414 16.3C98.4747 16.0067 98.0947 15.62 97.8014 15.14C97.5214 14.6467 97.3814 14.06 97.3814 13.38V5.2L100.641 4.92L102.441 5.8V12.46C102.508 12.3933 102.568 12.3533 102.621 12.34C102.688 12.3133 102.748 12.2533 102.801 12.16V4.92L106.041 4.64L108.041 5.64V16.64L104.961 16.9L104.241 16.56ZM103.001 5.1V12.2C102.868 12.4533 102.688 12.66 102.461 12.82C102.248 12.9667 101.955 13.06 101.581 13.1H101.481C101.201 13.1 100.955 13.0067 100.741 12.82C100.541 12.6333 100.441 12.3133 100.441 11.86V5.14L97.5814 5.38V13.38C97.5814 14.3 97.8347 14.9667 98.3414 15.38C98.8481 15.7933 99.4747 16 100.221 16H100.601C101.241 15.9333 101.788 15.7333 102.241 15.4C102.708 15.0533 102.995 14.6333 103.101 14.14L103.161 14.16V15.7L105.841 15.46V4.86L103.001 5.1ZM109.92 16.18V0.979999L113.18 0.699999L115.18 1.7V4.48C115.487 4.44 115.78 4.42 116.06 4.42C117.007 4.42 117.874 4.66 118.66 5.14C119.46 5.60667 120.1 6.32 120.58 7.28C121.074 8.22667 121.32 9.42667 121.32 10.88C121.32 12.8 120.94 14.2733 120.18 15.3C119.434 16.3133 118.44 16.8733 117.2 16.98C117.16 16.98 117.114 16.98 117.06 16.98C117.02 16.9933 116.974 17 116.92 17C116.494 17 116.067 16.9267 115.64 16.78C115.227 16.6467 114.9 16.5 114.66 16.34L114.26 16.98L111.92 17.18L109.92 16.18ZM112.8 14.82C112.987 15.0067 113.247 15.22 113.58 15.46C113.927 15.7 114.367 15.82 114.9 15.82C114.94 15.82 114.98 15.82 115.02 15.82C115.074 15.8067 115.127 15.8 115.18 15.8C116.38 15.6933 117.334 15.1467 118.04 14.16C118.76 13.16 119.12 11.7333 119.12 9.88C119.12 8.16 118.807 6.86 118.18 5.98C117.567 5.1 116.687 4.66 115.54 4.66C115.487 4.66 115.42 4.66 115.34 4.66C115.274 4.66 115.207 4.66667 115.14 4.68C114.527 4.73333 114.054 4.92667 113.72 5.26C113.387 5.59333 113.16 5.90667 113.04 6.2L112.98 6.18V0.92L110.12 1.16V15.98L112.16 15.8L112.8 14.82ZM114.4 13.28C113.987 13.28 113.674 13.16 113.46 12.92C113.26 12.68 113.1 12.4533 112.98 12.24V9.52C112.98 8.93333 113.127 8.45333 113.42 8.08C113.727 7.70667 114.087 7.5 114.5 7.46H114.66C115.22 7.46 115.614 7.69333 115.84 8.16C116.067 8.61333 116.18 9.27333 116.18 10.14C116.18 11.1933 116.02 11.9733 115.7 12.48C115.394 12.9733 115.007 13.24 114.54 13.28H114.4ZM115.18 12.8C115.434 12.6 115.627 12.28 115.76 11.84C115.907 11.4 115.98 10.8333 115.98 10.14C115.98 9.91333 115.974 9.68667 115.96 9.46C115.947 9.23333 115.92 9.05333 115.88 8.92C115.614 9 115.427 9.17333 115.32 9.44C115.227 9.70667 115.18 10.0667 115.18 10.52V12.8Z" fill="black"/>
</svg>
