<svg width="111" height="16" viewBox="0 0 111 16" fill="none" xmlns="http://www.w3.org/2000/svg">
<path d="M64.551 6.76594C63.959 6.43931 63.3365 6.17132 62.6925 5.96577C62.1634 5.78837 61.6106 5.69186 61.0528 5.67949C60.7237 5.66687 60.397 5.74038 60.105 5.89277C59.9846 5.95949 59.8856 6.05908 59.8195 6.17996C59.7535 6.30085 59.7231 6.43805 59.7319 6.57557C59.7316 6.72263 59.7714 6.86699 59.847 6.9931C59.9225 7.11921 60.031 7.2223 60.1608 7.29128C60.5146 7.49479 60.8946 7.64889 61.2901 7.74933C61.7523 7.87816 62.2389 8.02418 62.7497 8.18736C63.255 8.34881 63.7434 8.55928 64.2079 8.81576C64.6603 9.06338 65.0447 9.41884 65.3272 9.85069C65.6131 10.2839 65.7561 10.8422 65.7561 11.5255C65.7771 12.2271 65.5593 12.9151 65.1385 13.4765C64.7025 14.0272 64.1181 14.4415 63.4545 14.6703C62.6966 14.9419 61.8963 15.0757 61.0914 15.0654C60.1811 15.0676 59.2759 14.931 58.4067 14.6603C57.5787 14.4097 56.8056 14.0047 56.1279 13.4665L57.193 11.3337C57.789 11.7886 58.4541 12.1447 59.1629 12.3886C59.8084 12.6246 60.4887 12.7509 61.1757 12.7622C61.4286 12.7669 61.6806 12.7306 61.922 12.6549C62.1173 12.5955 62.2934 12.4853 62.4323 12.3357C62.5622 12.1889 62.6308 11.9977 62.6239 11.8017C62.6242 11.6491 62.5849 11.499 62.5097 11.3662C62.4345 11.2334 62.326 11.1226 62.195 11.0445C61.8529 10.8264 61.4799 10.6614 61.0885 10.5549C60.6339 10.4194 60.1507 10.2763 59.639 10.1255C59.1404 9.97913 58.6606 9.77496 58.2094 9.51715C57.7703 9.26862 57.3945 8.92177 57.1115 8.5037C56.8256 8.08477 56.6826 7.54082 56.6826 6.87187C56.6826 6.07599 56.8885 5.41848 57.3002 4.89934C57.7302 4.36832 58.298 3.96617 58.9413 3.73702C59.6645 3.47372 60.4292 3.34376 61.1986 3.35341C61.9937 3.35318 62.7853 3.46055 63.5517 3.67261C64.299 3.87425 65.0131 4.18332 65.6717 4.59017L64.551 6.76594Z" fill="#FF6A00"/>
<path d="M11.0767 1.86036C10.0331 0.957599 8.56683 0.506226 6.67789 0.506226H0.352051V15.4361H3.71724V11.1275H6.67789C8.56683 11.1275 10.0331 10.6475 11.0767 9.68745C12.1202 8.72743 12.6444 7.38762 12.6492 5.66799C12.6416 4.03329 12.1174 2.76407 11.0767 1.86036ZM8.6807 7.74785C8.16892 8.18109 7.44461 8.39772 6.50777 8.39772H3.71724V3.21451H6.50777C7.44556 3.21451 8.16987 3.42779 8.6807 3.85435C9.19154 4.28092 9.44697 4.92078 9.44697 5.77391C9.44697 6.65186 9.19154 7.30983 8.6807 7.74785Z" fill="#FF680A"/>
<path d="M109.878 6.20905C109.371 5.33767 108.624 4.63065 107.727 4.17212C106.803 3.6883 105.731 3.44639 104.51 3.44639C103.392 3.42281 102.285 3.67187 101.284 4.17212C101.25 4.1893 101.217 4.20934 101.182 4.22795C99.6928 3.36909 97.5399 3.42922 97.5399 3.42922C96.6711 3.40934 95.8168 3.655 95.091 4.13347C94.5322 4.51632 94.0721 5.02654 93.7486 5.62217V3.55803H90.4678V15.0095H93.7486V9.50708C93.7326 8.89917 93.8914 8.29945 94.2061 7.77935C94.5248 7.28484 94.9852 6.89818 95.527 6.66999C96.1629 6.40561 96.8562 6.30996 97.5399 6.39228C97.5399 6.39228 98.7793 6.56262 98.7793 6.89758C98.4848 7.65408 98.3392 8.46046 98.3504 9.27233C98.3271 10.3462 98.5922 11.4066 99.1181 12.3427C99.6259 13.2217 100.379 13.9335 101.284 14.3911C102.285 14.8909 103.392 15.1395 104.51 15.1154C105.733 15.1154 106.805 14.874 107.727 14.3911C108.626 13.9304 109.374 13.219 109.878 12.3427C110.404 11.4066 110.67 10.3462 110.646 9.27233C110.671 8.2006 110.406 7.14213 109.878 6.20905ZM107.004 11.0072C106.781 11.4757 106.435 11.8742 106.003 12.1595C105.558 12.4424 105.039 12.5869 104.512 12.5747C103.982 12.5859 103.46 12.4416 103.011 12.1595C102.573 11.877 102.223 11.478 101.999 11.0072C101.749 10.478 101.625 9.89777 101.637 9.31241C101.625 8.7266 101.749 8.14599 101.999 7.61616C102.22 7.14573 102.571 6.74844 103.011 6.47102C103.462 6.1956 103.983 6.05505 104.512 6.06591C105.038 6.05358 105.556 6.19431 106.003 6.47102C106.437 6.75129 106.784 7.14809 107.004 7.61616C107.253 8.14622 107.377 8.72667 107.365 9.31241C107.377 9.89771 107.253 10.4777 107.004 11.0072Z" fill="#FF6A00"/>
<path d="M54.2199 6.60254C53.7141 5.73247 52.97 5.02564 52.0756 4.56561C51.0785 4.06471 49.9743 3.81557 48.8591 3.83988H28.7021C27.6118 3.82437 26.5336 4.06974 25.5571 4.5556C25.4427 4.61429 25.3327 4.67583 25.2254 4.74167L25.3026 4.64578C24.0546 3.93006 22.3406 3.85419 21.8188 3.84846H21.7287H21.6615C20.8478 3.85569 20.0535 4.09827 19.3742 4.547C18.815 4.92943 18.3548 5.43975 18.0318 6.0357V3.97156H14.751V15.423H18.0318V9.92061C18.0151 9.31262 18.174 8.7127 18.4893 8.19286C18.8027 7.70473 19.254 7.32105 19.7859 7.09066C20.373 6.84562 21.0109 6.74736 21.6444 6.80437V6.81869C21.6444 6.81869 22.8266 7.00048 23.041 7.28533C22.7458 8.04111 22.6001 8.84718 22.6122 9.65865C22.5891 10.7323 22.8537 11.7925 23.3784 12.7291C23.8861 13.6072 24.6375 14.3188 25.5414 14.7775C26.518 15.2628 27.5962 15.5082 28.6864 15.4932H48.8433C50.0642 15.4932 51.1364 15.2517 52.0599 14.7689C52.9564 14.3066 53.7009 13.5954 54.2042 12.7205C54.7297 11.7842 54.9943 10.7238 54.9705 9.65007C54.9976 8.58524 54.7383 7.53268 54.2199 6.60254ZM51.3437 11.4007C51.1217 11.8692 50.7755 12.2678 50.343 12.553C50.0626 12.7341 49.7492 12.8577 49.4209 12.9166L28.6921 12.9667C28.1863 12.9657 27.691 12.8223 27.2626 12.553C26.8249 12.2704 26.4744 11.8714 26.2504 11.4007C26.0004 10.8714 25.8766 10.2913 25.8887 9.7059C25.8767 9.12009 26.0005 8.53947 26.2504 8.00965C26.472 7.53922 26.8232 7.14193 27.2626 6.8645C27.6933 6.60156 28.1877 6.46193 28.6921 6.46083H48.8491C49.3747 6.44899 49.8925 6.58969 50.3401 6.86593C50.7744 7.14604 51.1212 7.54288 51.3408 8.01108C51.5912 8.54079 51.7155 9.12141 51.7039 9.70733C51.7163 10.2921 51.5929 10.8718 51.3437 11.4007Z" fill="#FF680A"/>
<path d="M87.5345 6.20929C87.029 5.33892 86.2848 4.632 85.3901 4.17237C84.4676 3.68854 83.3959 3.44664 82.175 3.44664C81.0562 3.42305 79.9484 3.67211 78.9471 4.17237C78.0455 4.62852 77.2949 5.33588 76.7855 6.20929C76.2589 7.14153 75.9937 8.19894 76.0179 9.2697C76.0171 9.72425 76.0607 10.1778 76.148 10.6238C75.549 11.3567 74.421 12.0424 74.421 12.0424L74.2037 12.1412C74.0061 12.2282 73.8026 12.3014 73.5948 12.3602C73.3662 12.4277 73.1296 12.4638 72.8914 12.4675C72.7438 12.4829 72.5946 12.4652 72.4546 12.4156C72.3147 12.3661 72.1875 12.2861 72.0823 12.1813C71.8831 11.977 71.7835 11.6182 71.7835 11.1048V7.81251H74.8942V5.0441H71.7835V0.892944H68.5212V5.0441H66.9272V7.81394H68.5212V11.6359C68.5212 12.4174 68.677 13.0716 68.9887 13.5984C69.2877 14.1117 69.7368 14.5209 70.2753 14.7707C70.8536 15.0336 71.483 15.1646 72.118 15.1543C72.6494 15.1548 73.1784 15.083 73.6905 14.941C73.942 14.8727 74.1885 14.7871 74.4282 14.6848C74.6601 14.5861 74.885 14.4718 75.1015 14.3427C75.8084 13.8897 76.4777 13.3804 77.1029 12.8197C77.5874 13.4811 78.2194 14.0203 78.9485 14.3942C79.95 14.8941 81.0577 15.1426 82.1765 15.1185C83.3973 15.1185 84.469 14.8771 85.3916 14.3942C86.2884 13.9324 87.033 13.2211 87.5359 12.3459C88.0618 11.4097 88.327 10.3493 88.3036 9.27543C88.3284 8.20261 88.0626 7.14307 87.5345 6.20929ZM84.6596 11.0075C84.4375 11.4759 84.0914 11.8745 83.6589 12.1598C83.2142 12.4424 82.6959 12.5869 82.1693 12.5749C81.6388 12.586 81.1166 12.4418 80.6668 12.1598C80.2292 11.8772 79.8787 11.4782 79.6547 11.0075C79.4047 10.4782 79.2809 9.89801 79.293 9.31265C79.281 8.72684 79.4048 8.14623 79.6547 7.6164C79.8763 7.14597 80.2274 6.74868 80.6668 6.47126C81.1189 6.19565 81.6402 6.0551 82.1693 6.06615C82.6945 6.0541 83.212 6.19482 83.6589 6.47126C84.0931 6.75153 84.4398 7.14833 84.6596 7.6164C84.9095 8.14623 85.0333 8.72684 85.0213 9.31265C85.0334 9.89801 84.9096 10.4782 84.6596 11.0075Z" fill="#FF6A00"/>
</svg>
