<svg version="1.0" xmlns="http://www.w3.org/2000/svg" xmlns:xlink="http://www.w3.org/1999/xlink"
 width="512.000000pt" height="512.000000pt" viewBox="0 0 512.000000 512.000000"
 preserveAspectRatio="xMidYMid meet">

<symbol viewBox="0 0 512 512" id="kitchen">
<g transform="translate(0.000000,512.000000) scale(0.100000,-0.100000)" stroke="none">
<path d="M620 4985 c-18 -22 -15 -66 6 -82 12 -9 51 -13 121 -13 l103 0 0
-202 1 -203 -358 -351 -358 -352 0 -178 c0 -197 6 -222 68 -268 l28 -21 1024
0 c1018 0 1024 0 1051 21 66 49 69 59 72 257 l4 182 -356 350 -356 350 0 208
0 207 100 0 c87 0 103 3 120 20 24 24 25 38 4 68 l-15 22 -623 0 c-543 0 -625
-2 -636 -15z m930 -285 l0 -190 -295 0 -295 0 0 190 0 190 295 0 295 0 0 -190z
m330 -590 l295 -290 -920 0 -920 0 295 290 295 289 330 0 330 0 295 -289z
m380 -540 c0 -118 -2 -130 -19 -140 -27 -14 -1945 -14 -1972 0 -17 10 -19 22
-19 140 l0 130 1005 0 1005 0 0 -130z"/>
<path d="M2820 4779 c-46 -19 -92 -61 -111 -103 -18 -39 -19 -91 -19 -1268 l0
-1228 -1252 0 c-1233 0 -1254 0 -1286 -20 -18 -11 -41 -34 -52 -52 -20 -32
-20 -53 -20 -958 0 -905 0 -926 20 -958 11 -18 34 -41 52 -52 33 -20 54 -20
1439 -20 1327 0 1407 1 1421 18 8 9 62 106 118 214 l104 198 631 0 631 0 103
-197 c57 -109 110 -206 119 -215 13 -16 34 -18 153 -18 112 0 141 3 153 16 14
14 16 233 16 2258 l0 2242 -22 44 c-14 26 -41 57 -66 75 l-44 30 -1031 2
c-665 1 -1041 -2 -1057 -8z m2061 -114 c16 -9 34 -27 39 -41 6 -15 10 -276 10
-650 l0 -624 -1065 0 -1065 0 0 624 c0 389 4 635 10 651 21 56 -9 54 1058 55
868 0 986 -2 1013 -15z m49 -2490 l0 -1065 -1065 0 -1065 0 0 1065 0 1065
1065 0 1065 0 0 -1065z m-4210 -1025 l0 -920 -253 0 c-183 0 -256 3 -265 12
-9 9 -12 225 -12 910 0 844 1 898 18 907 10 6 115 11 265 11 l247 0 0 -920z
m1320 730 l0 -190 -600 0 -600 0 0 190 0 190 600 0 600 0 0 -190z m650 -730
l0 -920 -265 0 -265 0 0 920 0 920 265 0 265 0 0 -920z m-650 -250 l0 -670
-600 0 -600 0 0 670 0 670 600 0 600 0 0 -670z m2890 -70 l0 -160 -1065 0
-1065 0 0 160 0 160 1065 0 1065 0 0 -160z m-1830 -285 c0 -3 -36 -75 -81
-160 l-81 -155 -69 0 -69 0 0 160 0 160 150 0 c83 0 150 -2 150 -5z m1830
-155 l0 -160 -69 0 -69 0 -81 154 c-45 85 -81 157 -81 160 0 3 68 6 150 6
l150 0 0 -160z"/>
<path d="M3168 3689 c-21 -12 -24 -69 -6 -87 8 -8 60 -12 169 -12 170 0 182 3
182 57 0 46 -23 53 -182 53 -81 0 -154 -5 -163 -11z"/>
<path d="M3165 2665 l-25 -24 0 -306 0 -306 25 -24 c13 -14 29 -25 35 -25 6 0
22 11 35 25 l25 24 0 310 0 310 -26 20 c-34 27 -40 26 -69 -4z"/>
<path d="M972 1918 c-7 -7 -12 -24 -12 -39 0 -53 80 -79 120 -39 24 24 25 38
4 68 -11 17 -25 22 -58 22 -23 0 -47 -5 -54 -12z"/>
<path d="M1246 1908 c-21 -30 -20 -44 4 -68 40 -40 120 -14 120 39 0 38 -17
51 -66 51 -33 0 -47 -5 -58 -22z"/>
<path d="M1522 1918 c-7 -7 -12 -24 -12 -39 0 -53 80 -79 120 -39 24 24 25 38
4 68 -11 17 -25 22 -58 22 -23 0 -47 -5 -54 -12z"/>
<path d="M1796 1908 c-21 -30 -20 -44 4 -68 40 -40 120 -14 120 39 0 38 -17
51 -66 51 -33 0 -47 -5 -58 -22z"/>
</g>
</symbol>

<symbol viewBox="0 0 512 512" id="bath">
<g transform="translate(0.000000,512.000000) scale(0.100000,-0.100000)" stroke="none">
<path d="M3152 4895 c-62 -19 -106 -57 -136 -117 -23 -47 -26 -63 -26 -164 l0
-112 -55 -4 c-42 -4 -64 -12 -93 -34 -43 -35 -82 -105 -82 -149 0 -33 114
-669 125 -697 7 -17 -2 -18 -107 -18 -75 0 -118 -4 -126 -12 -20 -20 -15 -76
7 -88 13 -7 390 -10 1150 -10 1241 0 1161 -4 1161 59 0 41 -17 51 -92 51 l-68
0 0 213 c0 195 -2 215 -18 230 -17 15 -62 17 -448 17 -236 0 -434 -4 -441 -8
-26 -17 -33 -69 -33 -258 l0 -194 -161 0 c-143 0 -160 2 -155 16 10 27 126
671 126 701 0 42 -40 113 -82 147 -29 22 -51 30 -92 34 l-54 4 -4 122 c-3 110
-5 125 -30 167 -30 51 -84 92 -143 108 -50 14 -69 13 -123 -4z m128 -122 c45
-26 55 -56 55 -167 l0 -101 -117 -3 -118 -3 0 94 c0 52 5 109 11 126 22 62
109 90 169 54z m248 -399 c35 -24 43 -55 31 -123 l-11 -59 -158 -4 c-177 -3
-198 -10 -232 -79 -23 -43 -25 -223 -4 -272 27 -65 44 -72 186 -75 l128 -4 -5
-36 c-9 -61 -30 -101 -58 -112 -34 -13 -336 -13 -369 0 -14 5 -30 18 -36 30
-16 30 -132 669 -125 691 3 10 18 28 32 39 24 19 40 20 312 20 247 0 290 -2
309 -16z m-8 -321 c0 -10 -7 -55 -16 -101 l-17 -83 -116 3 -116 3 -3 84 c-2
46 -1 90 2 98 4 10 36 13 136 13 117 0 130 -2 130 -17z m1180 -278 l0 -175
-355 0 -355 0 0 175 0 175 355 0 355 0 0 -175z"/>
<path d="M885 4110 c-58 -18 -140 -76 -177 -125 -74 -98 -72 -80 -76 -655 l-3
-515 -57 -18 c-112 -35 -206 -130 -240 -239 l-17 -58 -60 0 c-67 0 -112 -21
-142 -67 -15 -22 -19 -53 -21 -180 -3 -138 -2 -157 17 -196 11 -23 35 -51 53
-62 33 -20 59 -20 2398 -20 2339 0 2365 0 2398 20 18 11 42 39 53 62 19 39 20
58 17 196 -3 169 -10 190 -71 227 -31 20 -67 20 -1962 20 l-1930 0 -17 58
c-33 108 -143 215 -250 243 l-48 13 0 508 c0 404 3 515 13 541 64 152 268 194
384 78 36 -37 111 -181 93 -181 -23 0 -132 -116 -157 -168 -25 -50 -28 -68
-28 -152 0 -106 17 -150 57 -150 30 0 608 178 636 196 29 19 28 52 -3 115 -37
71 -86 121 -157 159 -54 29 -75 35 -148 38 l-85 4 -40 87 c-46 99 -97 156
-177 197 -43 23 -69 28 -138 30 -47 2 -98 -1 -115 -6z m662 -456 c44 -28 92
-79 82 -88 -5 -6 -453 -146 -465 -146 -14 0 7 94 33 141 48 90 126 131 236
125 53 -3 77 -10 114 -32z m-752 -968 c61 -26 131 -102 150 -163 l6 -23 -261
0 -261 0 6 23 c10 35 57 97 97 130 68 54 178 68 263 33z m4113 -448 l3 -148
-2351 0 -2350 0 0 143 c0 79 3 147 7 150 3 4 1060 6 2347 5 l2341 -3 3 -147z"/>
<path d="M1636 3225 c-9 -9 -16 -23 -16 -31 0 -19 49 -117 64 -126 33 -22 86
7 86 48 0 10 -13 42 -28 69 -22 42 -32 51 -58 53 -19 2 -38 -3 -48 -13z"/>
<path d="M1252 3163 c-7 -3 -17 -16 -23 -29 -7 -20 -3 -37 21 -84 34 -68 66
-85 100 -55 26 24 25 56 -5 114 -28 57 -52 71 -93 54z"/>
<path d="M1561 2923 c-22 -27 -21 -42 6 -98 33 -65 73 -83 107 -49 23 22 20
57 -9 113 -34 68 -69 80 -104 34z"/>
<path d="M506 1781 c-17 -19 -15 -35 43 -364 34 -193 71 -373 84 -410 36 -98
83 -172 162 -252 128 -131 263 -190 473 -208 l132 -11 0 -138 c0 -134 1 -140
25 -163 23 -24 29 -25 153 -25 109 0 133 3 150 18 10 9 46 83 78 164 l59 148
695 0 695 0 64 -156 c53 -130 68 -157 90 -166 14 -5 84 -8 154 -6 114 3 130 5
143 22 10 15 14 55 14 161 l0 141 133 11 c216 18 332 69 472 208 87 86 149
189 179 295 8 30 41 203 72 383 54 316 56 328 39 347 -21 23 -67 26 -84 6 -6
-8 -36 -154 -66 -325 -69 -393 -69 -391 -112 -480 -68 -142 -227 -269 -384
-306 -55 -13 -246 -15 -1408 -15 -1210 0 -1351 2 -1410 16 -128 32 -244 107
-326 212 -79 100 -97 161 -164 541 -33 189 -66 349 -72 357 -17 20 -63 17 -83
-5z m1234 -1247 c0 -3 -19 -50 -41 -105 l-41 -99 -69 0 -69 0 0 105 0 105 110
0 c61 0 110 -3 110 -6z m1860 -99 l0 -105 -69 0 -69 0 -41 99 c-22 55 -41 102
-41 105 0 3 50 6 110 6 l110 0 0 -105z"/>
</g>
</symbol>

<symbol viewBox="0 0 512 512" id="bed">
<g transform="translate(0.000000,512.000000) scale(0.100000,-0.100000)" stroke="none">
<path d="M1807 4742 c-15 -17 -17 -70 -17 -555 l0 -537 23 -15 c21 -14 159
-15 1226 -13 1177 3 1203 3 1217 22 12 17 14 108 14 548 0 515 -1 529 -20 548
-20 20 -33 20 -1223 20 -1154 0 -1205 -1 -1220 -18z m2343 -552 l0 -450 -100
0 -101 0 -157 147 c-252 236 -260 243 -281 243 -11 0 -97 -65 -192 -145 l-173
-145 -22 22 c-11 13 -97 104 -189 203 -93 99 -175 186 -184 193 -40 33 -57 20
-331 -253 l-265 -265 -123 0 -122 0 0 450 0 450 1120 0 1120 0 0 -450z m-1285
-227 c82 -87 162 -173 179 -190 l30 -33 -374 0 -375 0 190 190 c104 105 193
190 196 190 3 0 73 -71 154 -157z m771 -94 c66 -61 121 -115 122 -120 4 -11
-515 -13 -521 -1 -6 8 253 230 269 231 7 1 65 -49 130 -110z"/>
<path d="M3086 4506 c-153 -57 -187 -264 -62 -374 92 -81 215 -61 291 47 27
39 30 50 30 120 0 68 -3 83 -28 119 -54 82 -149 118 -231 88z m115 -135 c23
-23 29 -38 29 -71 0 -33 -6 -48 -29 -71 -37 -36 -62 -37 -102 -1 -26 24 -32
36 -32 72 0 36 6 48 32 72 40 36 65 35 102 -1z"/>
<path d="M367 3508 c-12 -13 -78 -146 -146 -296 -108 -236 -123 -277 -115
-300 13 -38 48 -52 132 -52 l72 0 0 -86 c0 -77 -3 -89 -25 -116 -68 -81 18
-202 119 -168 46 15 68 42 73 93 4 36 1 48 -21 74 -24 28 -26 39 -26 117 l0
86 65 0 65 0 -2 -1167 -3 -1168 -88 -5 c-91 -5 -107 -13 -107 -55 0 -28 11
-42 43 -54 36 -14 396 -15 431 -1 39 14 53 53 32 85 -15 23 -21 25 -101 25
l-85 0 0 1170 0 1170 189 0 c231 0 260 8 261 72 0 33 -244 568 -267 586 -12 9
-78 12 -245 12 -224 0 -229 0 -251 -22z m520 -307 c51 -112 93 -207 93 -212 0
-5 -162 -9 -366 -9 -201 0 -364 4 -362 9 2 4 45 101 97 215 l94 206 176 -2
175 -3 93 -204z"/>
<path d="M1880 3341 c-69 -21 -130 -73 -166 -141 -18 -32 -19 -68 -22 -476
l-3 -442 -227 -4 c-253 -5 -269 -8 -342 -75 -85 -75 -80 -18 -80 -898 0 -737
1 -782 19 -821 33 -72 117 -124 203 -124 53 0 138 48 173 98 l30 44 5 276 5
277 1553 3 1552 2 0 -264 0 -264 28 -53 c85 -164 316 -154 393 16 17 38 19 86
19 800 0 493 -4 773 -10 797 -18 62 -69 120 -135 153 l-60 30 -222 3 -222 4
-3 436 -3 437 -30 54 c-16 29 -45 66 -64 82 -75 62 -16 59 -1245 58 -617 0
-1132 -4 -1146 -8z m2290 -129 c19 -9 43 -33 55 -52 19 -33 20 -54 23 -457 l3
-423 -76 0 -75 0 0 143 c0 134 -2 146 -26 195 -31 62 -81 106 -145 127 -40 14
-96 16 -346 13 -284 -3 -300 -4 -339 -25 -50 -27 -97 -75 -121 -122 -14 -29
-19 -66 -21 -183 l-3 -148 -70 0 -69 0 0 115 c0 62 -5 137 -11 165 -14 64 -60
125 -124 165 l-48 30 -321 0 c-311 0 -322 -1 -362 -22 -59 -31 -110 -93 -128
-154 -11 -35 -16 -93 -16 -176 l0 -123 -70 0 -70 0 0 423 c0 403 1 423 20 455
11 18 34 41 52 52 32 20 53 20 1143 20 1037 0 1112 -1 1145 -18z m-1403 -592
c59 -36 68 -60 71 -207 l4 -133 -386 0 -386 0 0 123 c0 139 12 176 69 214 33
23 39 23 315 23 261 0 283 -1 313 -20z m1138 6 c62 -26 75 -62 75 -213 l0
-133 -381 0 -381 0 4 138 c3 151 12 176 73 206 43 22 559 23 610 2z m925 -491
c67 -39 70 -55 70 -377 l0 -288 -1870 0 -1870 0 0 300 0 300 33 36 c18 20 47
39 67 44 19 4 823 7 1785 7 1740 -2 1750 -2 1785 -22z m70 -870 l0 -85 -1870
0 -1870 0 0 85 0 85 1870 0 1870 0 0 -85z m-3550 -466 l0 -261 -29 -29 c-41
-40 -91 -40 -132 0 l-29 29 0 261 0 261 95 0 95 0 0 -261z m3550 11 c0 -273
-4 -295 -55 -318 -51 -23 -107 -7 -131 39 -11 22 -14 81 -14 279 l0 250 100 0
100 0 0 -250z"/>
</g>
</symbol>

<symbol viewBox="0 0 512 512" id="living">
<g transform="translate(0.000000,512.000000) scale(0.100000,-0.100000)" stroke="none">
<path d="M450 4604 c-42 -18 -77 -50 -96 -86 -20 -39 -274 -1074 -274 -1117 1
-84 64 -160 150 -180 25 -6 156 -11 293 -11 l247 0 0 -1050 0 -1050 -27 -6
c-213 -46 -354 -175 -409 -373 l-17 -61 -57 0 c-42 0 -61 -5 -73 -18 -22 -24
-21 -55 1 -75 17 -15 76 -17 639 -17 588 0 621 1 636 18 43 47 8 89 -77 94
l-59 3 -14 54 c-45 177 -195 325 -371 365 l-57 13 -3 1051 -2 1051 272 3 c311
3 326 7 383 87 49 70 45 98 -102 688 -140 561 -144 571 -216 611 -28 15 -70
17 -382 19 -297 2 -355 0 -385 -13z m165 -131 c-3 -21 -26 -274 -50 -563 -25
-289 -48 -540 -51 -558 l-5 -34 -134 4 c-125 3 -135 4 -159 27 -14 14 -26 35
-26 48 0 20 219 925 250 1035 16 55 51 78 121 78 l59 0 -5 -37z m305 25 c0 -7
23 -267 50 -578 28 -311 50 -573 50 -582 0 -17 -16 -18 -195 -18 l-195 0 0 35
c0 38 86 1042 96 1113 l5 42 95 0 c68 0 94 -3 94 -12z m259 -12 c15 -14 51
-144 152 -554 121 -493 131 -538 118 -561 -24 -43 -54 -51 -187 -51 -89 0
-124 3 -127 13 -2 6 -25 251 -50 542 -25 292 -48 554 -51 584 l-7 53 66 -4
c45 -3 72 -10 86 -22z m-281 -3496 c145 -27 282 -155 308 -287 l7 -33 -391 0
-390 0 10 38 c17 60 47 111 96 164 97 104 222 145 360 118z"/>
<path d="M2061 3554 c-173 -46 -308 -191 -341 -363 -5 -30 -10 -197 -10 -372
0 -306 1 -320 20 -339 24 -24 38 -25 68 -4 22 15 22 16 22 337 0 363 6 405 65
493 39 56 98 103 166 131 42 17 107 18 1179 18 l1135 0 57 -27 c73 -34 142
-103 176 -176 l27 -57 5 -353 c5 -335 6 -354 24 -368 25 -18 36 -18 64 2 22
15 22 15 22 352 0 272 -3 349 -15 397 -43 163 -186 299 -353 334 -37 8 -381
11 -1155 10 -929 0 -1110 -3 -1156 -15z"/>
<path d="M2575 2997 c-88 -42 -137 -119 -138 -217 -1 -152 140 -271 287 -240
59 12 122 52 153 97 54 76 57 189 7 269 -64 104 -199 143 -309 91z m172 -107
c75 -45 84 -148 19 -207 -47 -43 -104 -47 -162 -12 -38 23 -54 57 -54 112 0
99 112 159 197 107z"/>
<path d="M3695 3009 c-43 -12 -112 -74 -136 -121 -82 -162 34 -352 216 -352
71 0 152 38 191 90 125 163 8 397 -197 393 -24 0 -58 -5 -74 -10z m144 -117
c37 -20 71 -73 71 -110 0 -129 -175 -185 -246 -77 -56 86 8 205 111 205 17 0
46 -8 64 -18z"/>
<path d="M1624 2329 c-59 -22 -126 -77 -159 -129 -55 -86 -56 -104 -53 -661
l3 -514 23 -38 c13 -20 45 -49 70 -65 44 -25 56 -27 190 -31 l142 -3 0 -179
c0 -225 -16 -209 211 -209 144 0 170 2 187 17 11 10 62 98 113 196 l93 177
775 0 776 0 90 -173 c49 -94 99 -182 112 -194 21 -22 29 -23 190 -23 230 0
213 -17 213 211 l0 179 123 0 c67 0 142 5 167 11 59 13 108 52 131 103 17 38
19 75 19 558 0 505 -1 519 -21 575 -46 121 -158 203 -289 211 -105 6 -176 -21
-251 -97 -79 -78 -99 -137 -99 -281 l0 -110 -1148 0 -1149 0 -6 113 c-7 124
-21 175 -67 242 -80 116 -250 167 -386 114z m186 -99 c44 -12 105 -62 128
-103 15 -28 18 -79 22 -450 5 -400 6 -419 24 -433 26 -18 51 -18 70 2 12 12
16 37 16 105 l0 89 1155 0 1155 0 0 -87 c0 -66 4 -91 17 -105 21 -24 48 -23
73 2 19 19 20 33 20 422 0 387 1 403 21 445 77 160 308 162 391 4 l28 -53 0
-503 c0 -493 0 -503 -21 -529 l-20 -26 -1659 0 c-1617 0 -1658 0 -1681 19
l-24 19 -3 484 c-4 544 -2 566 56 631 62 68 143 92 232 67z m2570 -585 l0 -95
-1150 0 -1150 0 0 95 0 95 1150 0 1150 0 0 -95z m-2122 -872 c-94 -182 -71
-163 -198 -163 l-110 0 0 140 0 140 185 0 184 0 -61 -117z m2232 -23 l0 -140
-109 0 c-75 0 -112 4 -118 13 -5 6 -40 69 -77 140 l-67 127 186 0 185 0 0
-140z"/>
</g>
</symbol>
</svg>
